<svg width="66" height="48" viewBox="0 0 66 48" fill="none" xmlns="http://www.w3.org/2000/svg">
<path d="M6.12421 26.6795V8.9873H0C0.151215 16.7749 0.302431 24.5625 6.12421 26.6795Z" fill="#3C3D48"/>
<path d="M28.0504 8.9873H21.9262C21.5482 14.5067 22.7579 21.6138 21.3214 26.0746C18.9019 21.3869 17.0117 16.17 17.0873 8.9873H10.9631C11.0387 13.5994 11.6436 17.6822 12.7777 21.1601C7.25836 23.8064 6.6535 31.3671 6.6535 39.4571H12.7777C13.1557 33.7866 11.946 26.4526 13.3826 21.765C15.7264 26.7551 17.6922 32.0476 17.6166 39.4571H23.7408C23.7408 34.9963 22.9847 31.2915 21.9262 27.8892C26.4627 24.0332 28.5797 17.8334 28.0504 8.9873Z" fill="#3C3D48"/>
<path d="M35.0102 32.8793L36.5979 27.2088H36.6735L38.1857 32.8793H35.0102ZM28.1299 39.4572H33.1956L33.9517 36.8109H39.1686L39.8491 39.4572H45.1416L39.1686 21.1602H34.1785L28.1299 39.4572Z" fill="#3C3D48"/>
<path d="M46.2001 39.4572H51.3414V32.5013H57.8437V28.116H51.3414V25.8478H58.9778V21.1602H46.2001V39.4572Z" fill="#3C3D48"/>
<path d="M65.8581 21.1602H60.7924V39.4572H65.8581V21.1602Z" fill="#3C3D48"/>
</svg>
