<svg width="103" height="49" viewBox="0 0 103 49" fill="none" xmlns="http://www.w3.org/2000/svg">
<path d="M89.5343 16.5715C87.6882 16.5715 86.1905 18.0265 86.1905 19.8212C86.1905 21.6159 87.6882 23.0707 89.5343 23.0707H95.8572V32.464H102.545V16.5715H89.5343ZM26.8187 22.9421H33.4426C32.923 21.5163 31.6781 20.574 30.1543 20.574C28.548 20.574 27.3546 21.5555 26.8187 22.9421ZM39.7152 25.2503L26.537 25.2505C26.7549 27.3147 28.1341 28.76 30.1543 28.76C31.6623 28.76 32.8153 27.9141 33.3742 26.7175H39.7152C39.0438 30.1194 35.4437 33.4023 30.2084 33.4023C24.3535 33.4023 20.524 29.7262 20.524 24.667C20.524 19.9201 24.324 15.9316 30.2084 15.9316C36.4884 15.9316 39.8231 20.5796 39.7152 25.2503ZM9.62897 28.76C7.42327 28.76 5.98059 27.0376 5.98059 24.667C5.98059 22.4428 7.41214 20.574 9.62897 20.574C11.2007 20.574 12.4783 21.5751 12.967 23.0766H19.0384C18.4422 18.8913 14.5993 15.9316 9.68441 15.9316C3.7999 15.9316 0 19.9201 0 24.667C0 29.7262 3.82946 33.4023 9.68441 33.4023C15.1286 33.4023 18.8344 30.0646 19.1911 26.0426H13.0909C12.6929 27.5838 11.4075 28.76 9.62897 28.76ZM78.5693 26.7497C78.5693 25.7517 77.7371 24.9427 76.7101 24.9427H72.754V28.5566H76.7101C77.7371 28.5566 78.5693 27.7476 78.5693 26.7497ZM84.1799 26.8362C84.1799 29.9443 81.5866 32.464 78.3883 32.464H66.9703V16.5715H72.754V21.2084H78.3883C81.5866 21.2084 84.1799 23.728 84.1799 26.8362ZM58.1974 16.5715L52.9206 23.9239L47.6454 16.5715H41.8622V32.464H47.6454V23.7371L52.0638 29.9154H53.9326L58.1974 23.8543V32.464H63.9805V16.5715H58.1974ZM86.1905 25.2816H93.4891V32.464H86.1905V25.2816Z" fill="#3C3D48"/>
</svg>
