<svg width="103" height="18" viewBox="0 0 103 18" fill="none" xmlns="http://www.w3.org/2000/svg">
<path d="M89.5343 0.904514C87.6882 0.904514 86.1905 2.35946 86.1905 4.15417C86.1905 5.94888 87.6882 7.40373 89.5343 7.40373H95.8572V16.797H102.545V0.904514H89.5343ZM26.8187 7.27507H33.4426C32.923 5.84933 31.6781 4.90698 30.1543 4.90698C28.548 4.90698 27.3546 5.88849 26.8187 7.27507ZM39.7152 9.58334L26.537 9.58347C26.7549 11.6477 28.1341 13.093 30.1543 13.093C31.6623 13.093 32.8153 12.2471 33.3742 11.0505H39.7152C39.0438 14.4524 35.4437 17.7354 30.2084 17.7354C24.3535 17.7354 20.524 14.0592 20.524 9.00005C20.524 4.25312 24.324 0.264648 30.2084 0.264648C36.4884 0.264648 39.8231 4.91261 39.7152 9.58334ZM9.62897 13.093C7.42327 13.093 5.98059 11.3706 5.98059 9.00005C5.98059 6.77579 7.41214 4.90698 9.62897 4.90698C11.2007 4.90698 12.4783 5.90811 12.967 7.40962H19.0384C18.4422 3.22427 14.5993 0.264648 9.68441 0.264648C3.7999 0.264648 0 4.25312 0 9.00005C0 14.0592 3.82946 17.7354 9.68441 17.7354C15.1286 17.7354 18.8344 14.3976 19.1911 10.3756H13.0909C12.6929 11.9168 11.4075 13.093 9.62897 13.093ZM78.5693 11.0827C78.5693 10.0847 77.7371 9.27567 76.7101 9.27567H72.754V12.8896H76.7101C77.7371 12.8896 78.5693 12.0806 78.5693 11.0827ZM84.1799 11.1692C84.1799 14.2773 81.5866 16.797 78.3883 16.797H66.9703V0.904514H72.754V5.54139H78.3883C81.5866 5.54139 84.1799 8.06098 84.1799 11.1692ZM58.1974 0.904514L52.9206 8.25688L47.6454 0.904514H41.8622V16.797H47.6454V8.07007L52.0638 14.2484H53.9326L58.1974 8.18727V16.797H63.9805V0.904514H58.1974ZM86.1905 9.61456H93.4891V16.797H86.1905V9.61456Z" fill="#3C3D48"/>
</svg>
