<svg width="66" height="24" viewBox="0 0 66 24" fill="none" xmlns="http://www.w3.org/2000/svg">
<path d="M25.2886 14.1243C24.9404 14.1621 24.7209 13.8442 24.615 13.5566C24.5998 13.5112 24.5771 13.5112 24.5544 13.549C23.3812 15.0402 26.1364 15.835 26.1743 13.8669C26.1894 12.8981 25.4552 12.0427 24.6452 11.5961C24.3046 11.4069 23.9337 11.2706 23.5553 11.1874C23.5023 11.1722 23.2449 11.1268 22.9875 11.0814C23.8202 10.8013 24.7361 10.3623 25.0918 9.62051C25.1751 9.43885 25.2129 9.24962 25.1978 9.06795C25.1978 8.25046 24.5241 8.1672 24.5241 8.1672C24.3198 8.12178 24.0927 8.15206 23.8807 8.24289C23.3812 8.46997 22.927 9.12851 22.6469 9.66593C22.874 7.53894 21.5342 5.59361 19.7781 4.55661C19.763 4.54904 19.7554 4.54147 19.7403 4.54147C19.6797 4.5339 19.6192 4.57175 19.6116 4.6323C19.5965 4.70043 19.6116 4.75341 19.657 4.78369C20.3761 5.32112 20.6032 6.3884 20.5956 7.22103C20.5956 7.81144 20.4821 8.75761 21.1406 8.95441C21.7689 9.14365 22.4728 8.38671 21.6932 7.9931C21.4207 7.85685 21.0422 8.05366 21.1936 8.35643C21.2163 8.40185 21.2315 8.43213 21.239 8.43969C21.3147 8.51539 21.4131 8.5608 21.5115 8.56837C21.5267 8.56837 21.5418 8.57594 21.5494 8.59108C21.5645 8.61379 21.5569 8.64407 21.5267 8.65921C20.9514 8.97712 20.6562 7.83415 21.5721 7.72817C22.0414 7.67519 22.2306 8.05366 22.2912 8.46997C22.3669 8.99983 22.3593 9.52211 22.2685 10.0368C22.2685 10.0368 22.2079 10.3169 22.1776 10.4531C22.1776 10.4607 22.1701 10.4683 22.1701 10.4759C22.1322 10.6348 22.0944 10.7862 22.0489 10.93C21.731 10.9452 21.398 10.9754 21.0649 11.0284C21.0422 10.9452 21.0195 10.8543 20.9892 10.7711C20.9514 10.6348 20.9135 10.5061 20.8757 10.3699C20.8378 10.2336 20.8 10.0974 20.7622 9.96871C20.7243 9.83246 20.6865 9.69621 20.6486 9.55996C20.6108 9.42371 20.5729 9.28746 20.5351 9.15121C20.4972 9.01497 20.4594 8.87872 20.4215 8.75004C20.3837 8.61379 20.3458 8.48511 20.308 8.34886C20.2701 8.21261 20.2323 8.08393 20.1945 7.94769C20.1566 7.81901 20.1188 7.68276 20.0809 7.55408C20.0431 7.4254 20.0052 7.29672 19.9749 7.16804C19.9371 7.03936 19.9068 6.91825 19.869 6.78957C19.8311 6.66846 19.8008 6.54735 19.763 6.42624C19.7327 6.30513 19.6949 6.19159 19.6646 6.07048C19.6343 5.95694 19.5965 5.8434 19.5662 5.72986C19.5359 5.62389 19.5056 5.51035 19.4754 5.40438C19.4451 5.29841 19.4148 5.20001 19.3845 5.09404C19.3543 4.99563 19.3315 4.89723 19.3013 4.79883C19.2786 4.708 19.2483 4.61717 19.2256 4.52633C19.2029 4.44307 19.1802 4.35981 19.1499 4.27654C19.1272 4.20085 19.1045 4.12516 19.0818 4.04946C19.059 3.98134 19.0439 3.91321 19.0212 3.84509C19.0061 3.78454 18.9834 3.72398 18.9682 3.66343C18.9531 3.61044 18.9379 3.55745 18.9228 3.50447C18.9077 3.45905 18.9001 3.42121 18.885 3.37579C18.8774 3.34551 18.8622 3.30767 18.8547 3.27739C18.8395 3.2244 18.8244 3.17899 18.7941 3.13357C18.7563 3.08058 18.726 3.0276 18.673 2.99732C18.6276 2.96704 18.5746 2.94434 18.5216 2.94434C18.4686 2.94434 18.4081 2.96704 18.3702 2.99732C18.3173 3.03517 18.2794 3.08815 18.2491 3.13357C18.2188 3.17899 18.2037 3.2244 18.1886 3.27739C18.181 3.30767 18.1659 3.34551 18.1583 3.37579C18.1432 3.42121 18.128 3.45905 18.1204 3.50447C18.1053 3.55745 18.0902 3.61044 18.075 3.66343C18.0599 3.72398 18.0372 3.78454 18.022 3.84509C17.9993 3.91321 17.9842 3.98134 17.9615 4.04946C17.9388 4.12516 17.9161 4.20085 17.8934 4.27654C17.8707 4.35981 17.848 4.44307 17.8177 4.52633C17.795 4.61717 17.7647 4.708 17.742 4.79883C17.7117 4.89723 17.689 4.99563 17.6587 5.09404C17.6284 5.20001 17.5982 5.29841 17.5679 5.40438C17.5376 5.51035 17.5073 5.62389 17.4771 5.72986C17.4468 5.8434 17.4089 5.95694 17.3786 6.07048C17.3484 6.19159 17.3105 6.30513 17.2802 6.42624C17.2424 6.54735 17.2121 6.66846 17.1743 6.78957C17.1364 6.91825 17.1062 7.03936 17.0683 7.16804C17.0305 7.29672 16.9926 7.4254 16.9623 7.55408C16.9245 7.68276 16.8866 7.81901 16.8488 7.94769C16.8109 8.08393 16.7731 8.21261 16.7353 8.34886C16.6974 8.48511 16.6596 8.61379 16.6217 8.75004C16.5839 8.88629 16.546 9.02254 16.5082 9.15121C16.4703 9.28746 16.4325 9.42371 16.3946 9.55996C16.3568 9.69621 16.3189 9.83246 16.2811 9.96871C16.2432 10.105 16.2054 10.2412 16.1675 10.3699C16.1297 10.5061 16.0919 10.6348 16.054 10.7711C16.0313 10.8543 16.0086 10.9452 15.9783 11.0284C15.6453 10.9754 15.3122 10.9376 14.9943 10.93C14.9489 10.7862 14.911 10.6348 14.8732 10.4759C14.8732 10.4683 14.8656 10.4607 14.8656 10.4531C14.8353 10.3169 14.7748 10.0368 14.7748 10.0368C14.684 9.52211 14.6764 9.0074 14.7521 8.46997C14.8126 8.05366 15.0019 7.66762 15.4712 7.72817C16.3871 7.83415 16.0919 8.97712 15.5166 8.65921C15.4939 8.64407 15.4863 8.61379 15.4939 8.59108C15.5014 8.57594 15.5166 8.56837 15.5317 8.56837C15.6377 8.5608 15.7285 8.52296 15.8042 8.43969C15.8118 8.43213 15.8269 8.40185 15.8496 8.35643C16.001 8.06123 15.6226 7.85685 15.3501 7.9931C14.5704 8.38671 15.2744 9.14365 15.9026 8.95441C16.5612 8.75761 16.4476 7.81144 16.4476 7.22103C16.4476 6.3884 16.6747 5.32112 17.3862 4.78369C17.4316 4.75341 17.4468 4.70043 17.4316 4.6323C17.4241 4.57175 17.3635 4.5339 17.303 4.54147C17.2878 4.54147 17.2802 4.54904 17.2651 4.55661C15.509 5.59361 14.1692 7.53894 14.3963 9.66593C14.1163 9.12094 13.6621 8.46997 13.1625 8.24289C12.9506 8.14449 12.7235 8.12178 12.5191 8.1672C12.5191 8.1672 11.8454 8.25046 11.8454 9.06795C11.8303 9.24962 11.8606 9.44642 11.9514 9.62051C12.3072 10.3623 13.2231 10.8013 14.0557 11.0814C13.7983 11.1192 13.5334 11.1722 13.488 11.1874C13.1095 11.2782 12.7386 11.4069 12.398 11.5961C11.5881 12.0427 10.8539 12.8981 10.869 13.8669C10.9068 15.835 13.6621 15.0402 12.4888 13.549C12.4586 13.5112 12.4434 13.5187 12.4283 13.5566C12.3223 13.8442 12.1028 14.1621 11.7546 14.1243C11.308 14.0789 11.1869 13.5717 11.3156 13.1933C11.52 12.565 12.0347 12.1411 12.6024 11.8232C13.2609 11.4599 13.9346 11.3312 14.6688 11.3312C14.6764 11.3312 14.684 11.3312 14.6991 11.3312C14.8429 11.7324 15.017 12.0957 15.2062 12.4136C14.8656 12.5574 14.6007 12.8072 14.4039 13.1554C14.366 13.2235 14.3282 13.2235 14.2979 13.1478C14.1011 12.671 13.7681 12.3455 13.2988 12.179C13.1171 12.1108 12.89 12.0654 12.7008 12.1487C12.5191 12.2244 12.3904 12.4515 12.451 12.6483C12.557 12.9737 13.0565 12.9965 13.1398 12.6407C13.1474 12.6028 13.1777 12.5726 13.2231 12.5726C13.2609 12.5801 13.2912 12.6104 13.2912 12.6558C13.2609 13.8896 13.5258 15.025 14.6537 15.6003C14.525 15.9788 14.3585 16.3421 14.1238 16.6676C13.8362 17.0688 13.4199 17.4699 12.9203 17.5759C12.7765 17.6062 12.6402 17.5759 12.5191 17.4927C12.2618 17.3261 12.1634 16.9174 12.2693 16.6449C12.3753 16.3875 12.6402 16.1983 12.9203 16.274C13.1625 16.3345 13.3215 16.5616 13.4199 16.7736C13.435 16.8114 13.4577 16.819 13.4804 16.7811C14.5174 15.1916 11.7016 14.6466 11.8379 16.607C11.8606 16.9628 11.9211 17.2731 12.1104 17.5608C12.345 17.909 12.6629 18.1133 13.0868 18.1588C14.4266 18.3101 15.4863 17.5229 15.8799 16.2816C16.0162 15.8652 16.1373 15.4414 16.2584 15.0175C16.3492 14.6996 16.44 14.3741 16.5233 14.0562C16.6823 14.1924 16.8488 14.3362 17.0153 14.4649C17.4771 14.8434 17.9388 15.2294 18.3097 15.676C18.287 15.7139 18.2643 15.7441 18.2416 15.782C18.0069 15.9939 17.8252 16.2588 17.689 16.5919C17.4998 17.0536 16.5536 16.6222 17.2651 15.9939C17.303 15.9636 17.2954 15.9409 17.25 15.9258C15.4485 15.3505 15.9783 18.3101 17.4695 17.5154C17.4771 17.5078 17.4922 17.5078 17.5073 17.5154C17.53 17.5229 17.5452 17.5532 17.5376 17.5759C17.3484 18.1361 17.5982 18.5524 18.0069 18.8551L18.5141 19.1579L19.0212 18.8551C19.4299 18.5524 19.6797 18.1361 19.4905 17.5759C19.4829 17.5532 19.4981 17.5229 19.5208 17.5154C19.5359 17.5078 19.5435 17.5154 19.5586 17.5154C21.0574 18.3101 21.5796 15.3505 19.7781 15.9258C19.7327 15.9409 19.7252 15.9636 19.763 15.9939C20.4821 16.6222 19.5283 17.0536 19.3391 16.5919C19.2029 16.2664 19.0212 15.9939 18.7866 15.782C18.7638 15.7441 18.7411 15.7139 18.7184 15.676C19.0818 15.2218 19.5511 14.8434 20.0128 14.4649C20.1793 14.3287 20.3458 14.1924 20.5048 14.0562C20.5881 14.3816 20.6789 14.6996 20.7697 15.0175C20.8908 15.4414 21.0195 15.8652 21.1482 16.2816C21.5418 17.5229 22.5939 18.3101 23.9413 18.1588C24.3652 18.1133 24.6831 17.909 24.9177 17.5608C25.107 17.2731 25.1675 16.9628 25.1902 16.607C25.3341 14.639 22.5182 15.1916 23.5477 16.7811C23.5704 16.819 23.5931 16.819 23.6082 16.7736C23.7066 16.5616 23.8656 16.3345 24.1078 16.274C24.3879 16.1983 24.6604 16.3875 24.7588 16.6449C24.8648 16.9174 24.7739 17.3261 24.509 17.4927C24.3879 17.5759 24.2516 17.6062 24.1078 17.5759C23.6082 17.4699 23.1919 17.0688 22.9043 16.6676C22.6696 16.3421 22.5031 15.9788 22.3744 15.6003C23.5098 15.025 23.7672 13.8896 23.7369 12.6558C23.7293 12.618 23.7596 12.5801 23.805 12.5726C23.8429 12.565 23.8807 12.5953 23.8883 12.6407C23.964 12.9965 24.4636 12.9737 24.5771 12.6483C24.6452 12.4515 24.509 12.2244 24.3273 12.1487C24.1381 12.0654 23.9186 12.1108 23.7293 12.179C23.2676 12.3455 22.9346 12.671 22.7302 13.1478C22.6999 13.216 22.6696 13.2235 22.6242 13.1554C22.4274 12.8072 22.1549 12.5574 21.8219 12.4136C22.0111 12.0957 22.1852 11.7324 22.329 11.3312C22.3366 11.3312 22.3442 11.3312 22.3593 11.3312C23.1011 11.3312 23.7672 11.4599 24.4257 11.8232C24.9934 12.1411 25.5082 12.5574 25.7125 13.1933C25.8563 13.5642 25.7352 14.0713 25.2886 14.1243ZM14.5326 10.8997C14.0708 10.7862 13.594 10.6045 13.1852 10.3547C13.0111 10.2488 12.837 10.105 12.7159 9.93086C12.6402 9.81732 12.5948 9.68107 12.5797 9.53725C13.0036 9.69621 13.5258 9.82489 13.5258 9.82489C13.5258 9.82489 13.4199 9.29503 13.2761 8.86358C13.5486 8.96198 13.8135 9.21934 13.9422 9.42371C14.1995 9.83246 14.5477 10.8695 14.578 10.9073C14.5628 10.9073 14.5477 10.9073 14.5326 10.8997ZM14.8353 15.0175C14.4417 14.2454 14.3887 13.0494 15.3501 12.6558C15.3803 12.724 15.4182 12.7921 15.456 12.8526C15.2062 13.7307 14.9943 14.4876 14.8353 15.0175ZM15.615 12.3001C15.4409 12.02 15.2744 11.7097 15.1381 11.3539C15.3803 11.369 15.6226 11.3917 15.8572 11.4296C15.7739 11.7248 15.6907 12.0124 15.615 12.3001ZM18.3097 6.91068C18.3248 6.85013 18.34 6.782 18.3778 6.72902C18.4081 6.67603 18.4459 6.62305 18.5065 6.60034C18.6049 6.57006 18.6806 6.70631 18.7109 6.782C18.7336 6.83499 18.7411 6.88797 18.7563 6.93339C18.779 7.01665 18.8017 7.10749 18.8168 7.19075C18.8622 7.36485 18.9001 7.53894 18.9455 7.71304C18.9909 7.88713 19.0288 8.06123 19.0742 8.23532C19.1196 8.40942 19.1574 8.58351 19.1953 8.75761C19.2331 8.9317 19.2786 9.1058 19.3164 9.27989C19.3543 9.45399 19.3997 9.62809 19.4375 9.80218C19.4754 9.97628 19.5208 10.1504 19.5586 10.3245C19.5965 10.4986 19.6419 10.6727 19.6873 10.8468C19.6949 10.8922 19.71 10.93 19.7176 10.9754C19.7176 10.9906 19.7403 11.1041 19.7479 11.1041H17.2954C17.6436 9.69621 17.9615 8.30345 18.3097 6.91068ZM18.9834 16.6373C18.9834 16.9704 18.8622 17.3186 18.5519 17.6819C18.5443 17.6895 18.5368 17.697 18.5216 17.7046C18.5141 17.697 18.4989 17.6895 18.4913 17.6819C18.181 17.3186 18.0599 16.9704 18.0599 16.6373C18.0599 16.3421 18.287 16.1907 18.5141 16.1832C18.7563 16.1907 18.9834 16.3421 18.9834 16.6373ZM19.7857 14.2C19.4981 14.4346 19.2029 14.6769 18.9379 14.9342C18.9758 14.8055 18.9909 14.6844 18.9834 14.5633C18.9834 14.2681 18.7563 14.1167 18.5216 14.1091C18.2945 14.1091 18.0675 14.2605 18.0599 14.5633C18.0599 14.6844 18.075 14.8055 18.1053 14.9342C17.8328 14.6769 17.5452 14.4346 17.2575 14.2C17.0456 14.0259 16.8337 13.8518 16.6369 13.6777C16.7277 13.3371 16.8185 12.9889 16.9093 12.6407H20.1339C20.2247 12.9889 20.3156 13.3295 20.4064 13.6777C20.2096 13.8518 19.9977 14.0259 19.7857 14.2ZM22.2155 15.0175C22.0641 14.4876 21.8446 13.7307 21.5948 12.8526C21.6326 12.7845 21.6705 12.724 21.7008 12.6558C22.6621 13.0494 22.6015 14.2454 22.2155 15.0175ZM21.4434 12.3001C21.4358 12.3001 21.4358 12.3001 21.4434 12.3001C21.3601 12.02 21.2769 11.7248 21.1936 11.4296C21.4283 11.3917 21.6705 11.369 21.9127 11.3539C21.7765 11.7021 21.6175 12.02 21.4434 12.3001ZM22.4728 10.9149C22.5031 10.877 22.8513 9.84003 23.1087 9.43128C23.2373 9.22691 23.5023 8.96955 23.7748 8.87115C23.6309 9.3026 23.525 9.83246 23.525 9.83246C23.525 9.83246 24.0473 9.70378 24.4711 9.54482C24.456 9.68864 24.4106 9.83246 24.3349 9.93843C24.2214 10.1125 24.0473 10.2563 23.8656 10.3623C23.4569 10.6121 22.98 10.7938 22.5182 10.9073C22.5031 10.9073 22.488 10.9073 22.4728 10.9149Z" fill="#25A25F"/>
<path d="M11.8 15.3959C11.3383 15.29 10.975 15.343 10.6798 15.5019C10.1499 15.782 10.5738 16.5995 11.1112 16.327C11.4064 16.1756 11.6638 15.9107 11.8454 15.4716C11.853 15.4565 11.853 15.4338 11.8606 15.4186C11.8379 15.4035 11.8152 15.3959 11.8 15.3959Z" fill="#25A25F"/>
<path d="M11.8379 11.4296C12.1709 11.4296 12.5191 11.3161 12.8824 11.0057C12.8976 10.9981 12.9052 10.983 12.9203 10.9603C12.9052 10.9452 12.8976 10.93 12.8824 10.9149C12.5191 10.6045 12.1709 10.491 11.8379 10.491C11.2399 10.4986 11.2399 11.422 11.8379 11.4296Z" fill="#25A25F"/>
<path d="M13.9497 8.25046C13.9649 8.25803 13.98 8.2656 14.0027 8.27317C14.0179 8.25803 14.0254 8.24289 14.033 8.22775C14.2147 7.78873 14.2222 7.41783 14.1163 7.09992C13.927 6.53222 13.049 6.81228 13.2306 7.38755C13.3215 7.70547 13.541 7.9931 13.9497 8.25046Z" fill="#25A25F"/>
<path d="M25.2508 15.3959C25.7125 15.29 26.0758 15.343 26.3711 15.5019C26.9009 15.782 26.477 16.5995 25.9396 16.327C25.6444 16.1756 25.387 15.9107 25.2054 15.4716C25.1978 15.4565 25.1978 15.4338 25.1902 15.4186C25.2129 15.4035 25.2356 15.3959 25.2508 15.3959Z" fill="#25A25F"/>
<path d="M25.2129 11.4296C24.8799 11.4296 24.5317 11.3161 24.1684 11.0057C24.1532 10.9981 24.1457 10.983 24.1305 10.9603C24.1457 10.9452 24.1532 10.93 24.1684 10.9149C24.5317 10.6045 24.8799 10.491 25.2129 10.491C25.8109 10.4986 25.8109 11.422 25.2129 11.4296Z" fill="#25A25F"/>
<path d="M23.1011 8.25046C23.086 8.25803 23.0708 8.2656 23.0481 8.27317C23.033 8.25803 23.0254 8.24289 23.0178 8.22775C22.8362 7.78873 22.8286 7.41783 22.9346 7.09992C23.1238 6.53222 24.0018 6.81228 23.8202 7.38755C23.7293 7.70547 23.5023 7.9931 23.1011 8.25046Z" fill="#25A25F"/>
<path d="M11.0658 19.3547L10.5965 19.824L10.4603 19.6878L11.0507 19.0974L11.4594 19.5061L11.3383 19.6272L11.0658 19.3547Z" fill="#25A25F"/>
<path d="M11.9514 19.9376L12.1179 20.0814L11.5957 20.1798L11.5805 20.7248L11.3913 20.5658L11.4064 20.1117L11.1718 20.3842L11.028 20.2631L11.5729 19.6272L11.7168 19.7483L11.4594 20.0435L11.9514 19.9376Z" fill="#25A25F"/>
<path d="M12.5721 21.2546L12.2996 21.073L12.1785 21.1638L12.0195 21.0578L12.7311 20.528L12.9279 20.6567L12.7084 21.5196L12.5418 21.406L12.5721 21.2546ZM12.7084 20.7551L12.4359 20.967L12.6175 21.0881L12.7084 20.7551Z" fill="#25A25F"/>
<path d="M13.4123 21.9132L13.5334 21.2546L13.049 21.7164L12.8749 21.6255L13.5258 21.0276L13.7302 21.1411L13.5864 22.0191L13.4123 21.9132Z" fill="#25A25F"/>
<path d="M14.3433 21.7088C14.3888 21.7239 14.419 21.7542 14.4493 21.7769C14.4796 21.8072 14.4947 21.8375 14.5099 21.8753C14.525 21.9132 14.525 21.9434 14.525 21.9813C14.525 22.0191 14.5174 22.057 14.4947 22.0948C14.4796 22.1327 14.4569 22.163 14.4266 22.1932C14.3963 22.2235 14.366 22.2387 14.3358 22.2538C14.2979 22.2689 14.2601 22.2765 14.2222 22.2689C14.1844 22.2689 14.139 22.2614 14.1011 22.2387L13.7908 22.1024L14.1238 21.3379L14.2979 21.4136L14.1995 21.6482L14.3433 21.7088ZM14.1617 22.0721C14.1995 22.0873 14.2374 22.0948 14.2676 22.0797C14.2979 22.0721 14.3206 22.0494 14.3358 22.0191C14.3509 21.9889 14.3509 21.9586 14.3358 21.9283C14.3206 21.898 14.2979 21.8753 14.2601 21.8602L14.1314 21.8072L14.0406 22.0191L14.1617 22.0721Z" fill="#25A25F"/>
<path d="M15.123 22.6323L14.9413 22.5717L14.9716 22.4809C14.9186 22.4657 14.8808 22.443 14.8429 22.4128C14.8051 22.3825 14.7748 22.3446 14.7521 22.3068C14.7294 22.2689 14.7142 22.2235 14.7142 22.1781C14.7067 22.1327 14.7142 22.0873 14.7294 22.0419C14.7445 21.9964 14.7672 21.9586 14.7975 21.9207C14.8278 21.8905 14.8656 21.8602 14.9035 21.845C14.9413 21.8299 14.9867 21.8148 15.0397 21.8148C15.0851 21.8148 15.1381 21.8223 15.1835 21.8375L15.2138 21.7466L15.3955 21.8072L15.3652 21.898C15.4182 21.9132 15.456 21.9359 15.4939 21.9662C15.5317 21.9964 15.562 22.0343 15.5847 22.0721C15.6074 22.11 15.6226 22.1554 15.6226 22.2008C15.6301 22.2462 15.6226 22.2916 15.6074 22.3371C15.5923 22.3825 15.5696 22.4203 15.5393 22.4582C15.509 22.4884 15.4712 22.5187 15.4333 22.5339C15.3955 22.549 15.3501 22.5641 15.2971 22.5641C15.2517 22.5641 15.1987 22.5566 15.1533 22.5414L15.123 22.6323ZM15.0246 22.3143L15.123 22.004C15.1003 21.9964 15.0776 21.9889 15.0549 21.9964C15.0321 21.9964 15.0094 22.004 14.9943 22.0116C14.9716 22.0191 14.9565 22.0343 14.9413 22.0494C14.9262 22.0646 14.9186 22.0873 14.911 22.11C14.9035 22.1327 14.9035 22.1554 14.9035 22.1781C14.9035 22.2008 14.911 22.2159 14.9186 22.2387C14.9262 22.2538 14.9413 22.2765 14.964 22.2916C14.9792 22.2992 15.0019 22.3068 15.0246 22.3143ZM15.2062 22.3749C15.229 22.3825 15.2517 22.39 15.2744 22.3825C15.2971 22.3825 15.3198 22.3749 15.3349 22.3673C15.3576 22.3598 15.3728 22.3446 15.3879 22.3295C15.403 22.3143 15.4106 22.2916 15.4182 22.2689C15.4258 22.2462 15.4258 22.2235 15.4258 22.2008C15.4258 22.1781 15.4182 22.163 15.4106 22.1403C15.403 22.1251 15.3879 22.1024 15.3652 22.0873C15.3501 22.0721 15.3274 22.0646 15.3046 22.0494L15.2062 22.3749Z" fill="#25A25F"/>
<path d="M16.213 22.7609L15.8951 22.6852L15.8194 22.8139L15.6301 22.7685L16.107 22.0191L16.3341 22.0721L16.4325 22.9577L16.2357 22.9123L16.213 22.7609ZM16.16 22.2462L15.9783 22.5414L16.1903 22.5868L16.16 22.2462Z" fill="#25A25F"/>
<path d="M17.1137 22.3749C17.0759 22.3673 17.0456 22.3749 17.0153 22.3825C16.985 22.39 16.9548 22.4052 16.9321 22.4279C16.9094 22.4506 16.8866 22.4733 16.8715 22.5036C16.8564 22.5339 16.8412 22.5641 16.8412 22.602C16.8337 22.6398 16.8412 22.6701 16.8488 22.708C16.8564 22.7382 16.8715 22.7685 16.8866 22.7988C16.9094 22.8215 16.9321 22.8442 16.9623 22.8669C16.9926 22.882 17.0229 22.8972 17.0607 22.9048C17.1137 22.9123 17.1591 22.9048 17.197 22.8896C17.2424 22.8745 17.2727 22.8442 17.303 22.8064L17.4316 22.9275C17.3787 22.988 17.3257 23.0334 17.2575 23.0561C17.1894 23.0864 17.1137 23.094 17.0305 23.0789C16.9699 23.0713 16.9094 23.0486 16.8564 23.0183C16.8034 22.988 16.7655 22.9502 16.7277 22.9048C16.6898 22.8593 16.6671 22.8064 16.652 22.7534C16.6369 22.7004 16.6369 22.6398 16.6444 22.5793C16.652 22.5187 16.6747 22.4657 16.705 22.4128C16.7353 22.3673 16.7731 22.3219 16.8185 22.2916C16.8639 22.2614 16.9169 22.2311 16.9699 22.2235C17.0305 22.2084 17.0834 22.2084 17.1516 22.2159C17.2348 22.2311 17.303 22.2538 17.3635 22.2992C17.4241 22.3446 17.4695 22.3976 17.4922 22.4733L17.3257 22.5566C17.3105 22.5112 17.2803 22.4733 17.25 22.443C17.2121 22.4052 17.1667 22.3825 17.1137 22.3749Z" fill="#25A25F"/>
<path d="M17.8631 23.1318L17.9009 22.4657L17.6511 22.4506L17.6587 22.2765L18.3475 22.3143L18.34 22.4884L18.0902 22.4733L18.0523 23.1394L17.8631 23.1318Z" fill="#25A25F"/>
<path d="M18.7033 22.9199L18.7109 23.1545L18.5216 23.1621L18.4989 22.3219L18.8622 22.3143C18.9077 22.3143 18.9531 22.3219 18.9909 22.3371C19.0288 22.3522 19.0591 22.3749 19.0893 22.3976C19.112 22.4203 19.1347 22.4582 19.1499 22.4884C19.165 22.5263 19.1726 22.5641 19.1726 22.602C19.1726 22.6474 19.165 22.6852 19.1575 22.7231C19.1499 22.7609 19.1272 22.7912 19.0969 22.8215C19.0666 22.8518 19.0363 22.8745 18.9985 22.8896C18.9607 22.9048 18.9152 22.9123 18.8698 22.9199H18.7033ZM18.6957 22.4884L18.7033 22.7458L18.8547 22.7382C18.8925 22.7382 18.9304 22.7231 18.9455 22.7004C18.9682 22.6777 18.9758 22.6474 18.9758 22.6096C18.9758 22.5717 18.9606 22.5414 18.9379 22.5187C18.9152 22.496 18.8774 22.4884 18.8395 22.4884H18.6957Z" fill="#25A25F"/>
<path d="M19.8463 23.094C19.7857 23.1016 19.7252 23.094 19.6722 23.0789C19.6192 23.0637 19.5662 23.041 19.5208 23.0032C19.4754 22.9653 19.4375 22.9275 19.4072 22.8745C19.377 22.8215 19.3618 22.7685 19.3543 22.708C19.3467 22.6474 19.3543 22.5868 19.3694 22.5339C19.3845 22.4809 19.4148 22.4279 19.4451 22.3825C19.4829 22.3371 19.5208 22.2992 19.5738 22.2765C19.6268 22.2462 19.6797 22.2311 19.7403 22.2235C19.8009 22.2159 19.8614 22.2235 19.922 22.2387C19.9749 22.2538 20.0279 22.2765 20.0733 22.3144C20.1188 22.3522 20.1566 22.39 20.1793 22.443C20.2096 22.496 20.2247 22.549 20.2323 22.6096C20.2399 22.6701 20.2323 22.7307 20.2172 22.7836C20.202 22.8366 20.1717 22.8896 20.1415 22.935C20.1036 22.9805 20.0658 23.0107 20.0128 23.041C19.9674 23.0637 19.9144 23.0864 19.8463 23.094ZM19.8311 22.9199C19.869 22.9123 19.8993 22.9048 19.9295 22.8896C19.9598 22.8745 19.9825 22.8518 20.0052 22.8291C20.0279 22.8064 20.0431 22.7761 20.0506 22.7382C20.0582 22.708 20.0582 22.6701 20.0582 22.6323C20.0506 22.5944 20.0431 22.5641 20.0279 22.5339C20.0128 22.5036 19.9901 22.4809 19.9674 22.4582C19.9447 22.4355 19.9144 22.4203 19.8841 22.4128C19.8538 22.4052 19.816 22.3976 19.7857 22.4052C19.7479 22.4128 19.7176 22.4203 19.6873 22.4355C19.657 22.4506 19.6343 22.4733 19.6116 22.496C19.5889 22.5187 19.5738 22.549 19.5662 22.5868C19.5586 22.6247 19.5586 22.655 19.5586 22.6928C19.5662 22.7307 19.5738 22.7609 19.5889 22.7912C19.604 22.8215 19.6268 22.8442 19.6495 22.8669C19.6722 22.8896 19.7024 22.9048 19.7327 22.9123C19.763 22.9199 19.7933 22.9199 19.8311 22.9199Z" fill="#25A25F"/>
<path d="M21.0801 22.8593L20.9665 22.3295L20.7319 22.935L20.5426 22.9805L20.361 22.163L20.5426 22.1251L20.6562 22.655L20.8908 22.0494L21.0801 22.004L21.2617 22.8215L21.0801 22.8593ZM20.7016 22.0419C20.6562 22.0494 20.6183 22.057 20.5881 22.0494C20.5578 22.0419 20.5351 22.0343 20.5275 22.0267L20.4972 21.8829C20.5199 21.898 20.5426 21.9056 20.5729 21.9132C20.6032 21.9207 20.641 21.9207 20.6789 21.9132C20.7167 21.9056 20.747 21.8905 20.7773 21.8753C20.8 21.8526 20.8227 21.8375 20.8379 21.8148L20.8681 21.9586C20.8606 21.9737 20.8454 21.9813 20.8227 22.004C20.7849 22.0191 20.747 22.0343 20.7016 22.0419Z" fill="#25A25F"/>
<path d="M22.0717 22.5793L21.9051 22.0646L21.7235 22.6852L21.5342 22.7458L21.2769 21.951L21.4585 21.8905L21.6251 22.4052L21.8067 21.7845L21.996 21.7239L22.2533 22.5187L22.0717 22.5793Z" fill="#25A25F"/>
<path d="M22.8967 21.9056L22.5712 22.0419L22.6999 22.3446L22.5258 22.4203L22.2003 21.6482L22.3744 21.5725L22.5031 21.8829L22.8286 21.7466L22.6999 21.4363L22.874 21.3606L23.1995 22.1327L23.0254 22.2084L22.8967 21.9056Z" fill="#25A25F"/>
<path d="M23.0632 21.2698L23.366 21.1108C23.4039 21.0881 23.4493 21.073 23.4796 21.073C23.5174 21.0654 23.5477 21.0654 23.578 21.0805C23.6082 21.0881 23.6309 21.1032 23.6537 21.1184C23.6764 21.1411 23.6915 21.1638 23.7066 21.1865C23.7218 21.2168 23.7294 21.2546 23.7294 21.2849C23.7294 21.3152 23.7142 21.353 23.6915 21.3833C23.7445 21.3757 23.7899 21.3757 23.8353 21.3909C23.8732 21.406 23.9034 21.4363 23.9337 21.4817C23.9489 21.512 23.9564 21.5423 23.964 21.5725C23.964 21.6028 23.964 21.6331 23.9489 21.6634C23.9337 21.6937 23.9186 21.7239 23.8883 21.7542C23.858 21.7845 23.8278 21.8072 23.7823 21.8299L23.4493 22.004L23.0632 21.2698ZM23.3055 21.3228L23.3887 21.4741L23.5174 21.406C23.5477 21.3909 23.5628 21.3757 23.5704 21.353C23.578 21.3303 23.578 21.3076 23.5628 21.2849C23.5477 21.2622 23.5325 21.2471 23.5098 21.2395C23.4871 21.2319 23.4644 21.2395 23.4341 21.2546L23.3055 21.3228ZM23.4644 21.618L23.5477 21.7769L23.7066 21.6937C23.7369 21.6785 23.7596 21.6558 23.7672 21.6331C23.7748 21.6104 23.7748 21.5877 23.7672 21.565C23.7521 21.5423 23.7369 21.5271 23.7066 21.5196C23.6839 21.512 23.6537 21.5196 23.6158 21.5347L23.4644 21.618Z" fill="#25A25F"/>
<path d="M23.805 20.861L24.3198 20.528L24.4106 20.6718L24.0548 20.8989L24.1381 21.0351L24.4711 20.8232L24.562 20.967L24.2289 21.1789L24.3198 21.3228L24.6755 21.0957L24.7664 21.2395L24.2516 21.5725L23.805 20.861Z" fill="#25A25F"/>
<path d="M24.8875 20.3085C24.8572 20.3312 24.8345 20.3539 24.8193 20.3842C24.8042 20.4144 24.7966 20.4447 24.7891 20.475C24.7891 20.5053 24.7891 20.5431 24.7966 20.5734C24.8042 20.6037 24.8193 20.6339 24.842 20.6642C24.8648 20.6945 24.8875 20.7172 24.9177 20.7324C24.948 20.7475 24.9783 20.7626 25.0086 20.7626C25.0389 20.7702 25.0767 20.7626 25.107 20.7551C25.1373 20.7475 25.1675 20.7324 25.1978 20.7096C25.2357 20.6794 25.2659 20.6415 25.2811 20.5961C25.2962 20.5507 25.3038 20.5053 25.2962 20.4599L25.4779 20.4523C25.4854 20.528 25.4779 20.6037 25.4552 20.6718C25.4325 20.7399 25.387 20.8005 25.3189 20.8535C25.2659 20.8913 25.2129 20.9216 25.16 20.9367C25.0994 20.9519 25.0464 20.9594 24.9934 20.9519C24.9404 20.9443 24.8799 20.9292 24.8345 20.8989C24.7815 20.8686 24.7361 20.8308 24.6982 20.7853C24.6604 20.7399 24.6377 20.6869 24.6225 20.6339C24.6074 20.581 24.6074 20.5204 24.6074 20.4674C24.615 20.4144 24.6301 20.3615 24.6604 20.3085C24.6907 20.2555 24.7285 20.2101 24.7815 20.1722C24.8496 20.1192 24.9177 20.089 24.9859 20.0738C25.054 20.0587 25.1297 20.0738 25.2054 20.1041L25.1524 20.2782C25.107 20.2631 25.0616 20.2555 25.0161 20.2555C24.9707 20.2555 24.9329 20.2782 24.8875 20.3085Z" fill="#25A25F"/>
<path d="M25.9547 20.3085L25.5082 19.8165L25.3265 19.983L25.2129 19.8543L25.7201 19.3926L25.8336 19.5213L25.652 19.6878L26.0986 20.1798L25.9547 20.3085Z" fill="#25A25F"/>
<path d="M38.2106 11.289H35.727L35.2653 12.4247C35.2528 12.4621 35.2278 12.4996 35.2153 12.537C35.2029 12.5745 35.1779 12.6244 35.1654 12.6618C35.128 12.7367 35.103 12.8241 35.0656 12.9239C35.0406 13.0237 35.0157 13.1361 35.0157 13.2484C35.0157 13.4231 35.0656 13.5604 35.1529 13.6602C35.2403 13.7601 35.465 13.8225 35.8269 13.8475V14.0971H33.6678V13.8475C33.8924 13.835 34.0921 13.7476 34.2544 13.6103C34.4166 13.4606 34.5414 13.3108 34.6288 13.1361C34.6412 13.1111 34.6662 13.0862 34.6787 13.0612C34.6912 13.0362 34.7036 13.0113 34.7161 12.9863L37.5242 5.78513H37.7489L40.6443 13.8475H41.5055V14.0971H38.011V13.8475H39.1467L38.2106 11.289ZM37.025 7.88183L35.777 11.0269H38.1108L37.025 7.88183Z" fill="#25A25F"/>
<path d="M49.131 11.3389L49.0311 14.1095H48.7066C48.7066 14.0846 48.7066 14.0471 48.6942 14.0097C48.6817 13.9723 48.6692 13.9223 48.6567 13.8849C48.6318 13.81 48.5943 13.7476 48.5319 13.6852C48.482 13.6353 48.3946 13.5978 48.2948 13.5978C48.2074 13.5978 48.1201 13.6228 48.0327 13.6602C47.9453 13.6977 47.858 13.7476 47.7581 13.81C47.7207 13.835 47.6708 13.8599 47.6084 13.8974C47.546 13.9348 47.4711 13.9598 47.3962 13.9972C47.2464 14.0596 47.0717 14.1095 46.872 14.1595C46.6599 14.2094 46.4227 14.2343 46.1606 14.2343C45.2246 14.2343 44.4384 13.8849 43.7769 13.1985C43.1154 12.4996 42.7535 11.601 42.6786 10.4902C42.6786 10.4278 42.6786 10.3529 42.6661 10.2905C42.6661 10.2281 42.6537 10.1533 42.6537 10.0909C42.6537 10.0285 42.6537 9.95358 42.6661 9.89117C42.6661 9.82877 42.6786 9.75389 42.6786 9.69149C42.7535 8.56825 43.1279 7.60726 43.8143 6.83348C44.4883 6.0597 45.3619 5.66032 46.4227 5.66032C46.6349 5.66032 46.8221 5.68528 46.9968 5.72272C47.1716 5.76016 47.3213 5.81009 47.4586 5.84753C47.5959 5.89745 47.7207 5.94737 47.833 5.98481C47.9453 6.02225 48.0452 6.04721 48.1201 6.04721C48.1575 6.04721 48.1949 6.04721 48.2324 6.03473C48.2698 6.03473 48.3198 6.00977 48.3697 5.98481C48.4196 5.95985 48.4695 5.92241 48.507 5.87249C48.5444 5.82257 48.5818 5.74769 48.6193 5.64784H48.9188L48.9438 8.35608H48.6692C48.5818 7.61974 48.3821 7.02069 48.0826 6.57139C47.7706 6.1221 47.2464 5.89745 46.4976 5.89745C46.3728 5.89745 46.248 5.90993 46.1107 5.93489C45.9734 5.95985 45.8237 6.00977 45.6739 6.07218C45.3245 6.22194 45.0124 6.53395 44.7254 6.99572C44.4384 7.4575 44.2886 8.16888 44.2886 9.12987V11.1891C44.2886 11.9629 44.4134 12.562 44.6755 12.9489C44.9376 13.3482 45.2246 13.6228 45.5366 13.7726C45.7113 13.8599 45.8861 13.9223 46.0483 13.9598C46.2106 13.9847 46.3603 14.0097 46.4727 14.0097C46.5475 14.0097 46.6224 14.0097 46.7098 13.9972C46.7847 13.9847 46.872 13.9723 46.9594 13.9598C47.3463 13.8599 47.7207 13.6103 48.0826 13.2234C48.4321 12.8365 48.6942 12.2125 48.8564 11.3389H49.131Z" fill="#25A25F"/>
<path d="M57.3556 6.87092V6.04721H56.457V5.79761H59.7518V6.04721H58.7784V13.8599H59.7518V14.1095H56.457V13.8599H57.3431V7.3327L53.599 13.161V13.8599H54.4851V14.1095H51.1903V13.8599H52.1638V6.04721H51.1903V5.79761H54.4851V6.04721H53.599V12.6369L57.3556 6.87092Z" fill="#25A25F"/>
<path d="M42.0234 16.7928V18.4527H41.5492V16.356H42.9969V16.7928H42.0234Z" fill="#25A25F"/>
<path d="M43.9205 17.8661V18.4527H43.4462V16.356H44.3448C44.4571 16.356 44.5695 16.381 44.6568 16.4184C44.7442 16.4559 44.8315 16.5058 44.8939 16.5807C44.9563 16.6431 45.0063 16.7304 45.0437 16.8178C45.0811 16.9051 45.0936 17.005 45.0936 17.1048C45.0936 17.2172 45.0811 17.317 45.0437 17.4044C45.0063 17.4917 44.9563 17.5791 44.8939 17.654C44.8315 17.7289 44.7442 17.7788 44.6443 17.8162C44.5445 17.8537 44.4322 17.8786 44.3198 17.8786H43.9205V17.8661ZM43.9205 16.7928V17.4293H44.2949C44.3947 17.4293 44.4821 17.4044 44.532 17.342C44.5944 17.2796 44.6194 17.2047 44.6194 17.1048C44.6194 17.005 44.5944 16.9301 44.532 16.8802C44.4696 16.8178 44.3947 16.7928 44.2824 16.7928H43.9205Z" fill="#25A25F"/>
<path d="M46.3292 18.4527H45.8549L46.1545 17.7913L45.3807 16.356H45.9049L46.3791 17.2796L46.8034 16.356H47.2902L46.3292 18.4527Z" fill="#25A25F"/>
<path d="M49.0249 18.4527V16.7928H48.1638V18.4527H47.6896V16.356H49.4867V18.4527H49.0249Z" fill="#25A25F"/>
<path d="M51.4087 18.4527V16.7928H50.5475V18.4527H50.0733V16.356H51.8704V18.4527H51.4087Z" fill="#25A25F"/>
<path d="M18.4159 24C16.8028 24 15.2347 23.6834 13.7641 23.0578C12.3385 22.4548 11.063 21.5879 9.96758 20.4874C8.87214 19.3869 8.0093 18.098 7.40906 16.6734C6.78632 15.196 6.47119 13.6206 6.47119 12C6.47119 10.3794 6.78632 8.80402 7.40906 7.32663C8.0093 5.89447 8.87214 4.61307 9.96758 3.51256C11.063 2.41206 12.346 1.54523 13.7641 0.942211C15.2347 0.316583 16.8028 0 18.4159 0C20.0291 0 21.5972 0.316583 23.0678 0.942211C24.4934 1.54523 25.7689 2.41206 26.8643 3.51256C27.9597 4.61307 28.8226 5.90201 29.4228 7.32663C30.0456 8.80402 30.3607 10.3794 30.3607 12C30.3607 13.6206 30.0456 15.196 29.4228 16.6734C28.8226 18.1055 27.9597 19.3869 26.8643 20.4874C25.7689 21.5879 24.4859 22.4548 23.0678 23.0578C21.5972 23.6834 20.0291 24 18.4159 24ZM18.4159 0.248743C16.8403 0.248743 15.3097 0.557789 13.8691 1.16834C12.4736 1.75628 11.2281 2.60804 10.1552 3.68593C9.08223 4.76382 8.24189 6.02261 7.64916 7.41708C7.04142 8.86432 6.7338 10.402 6.7338 11.9849C6.7338 13.5678 7.04142 15.1055 7.64916 16.5528C8.23439 17.9548 9.08223 19.206 10.1552 20.2839C11.2281 21.3618 12.4811 22.206 13.8691 22.8015C15.3097 23.4121 16.8403 23.7211 18.4159 23.7211C19.9916 23.7211 21.5222 23.4121 22.9627 22.8015C24.3583 22.2136 25.6038 21.3618 26.6767 20.2839C27.7497 19.206 28.59 17.9472 29.1827 16.5528C29.7905 15.1055 30.0981 13.5678 30.0981 11.9849C30.0981 10.402 29.7905 8.86432 29.1827 7.41708C28.5975 6.02261 27.7497 4.76382 26.6767 3.68593C25.6038 2.60804 24.3508 1.76382 22.9627 1.16834C21.5297 0.565327 19.9991 0.248743 18.4159 0.248743Z" fill="#25A25F"/>
<path d="M23.4129 16.7186C23.4355 16.7563 23.458 16.7563 23.473 16.7111C23.5705 16.5 23.7281 16.2739 23.9682 16.2136C24.2458 16.1382 24.5159 16.3266 24.6134 16.5829C24.7185 16.8543 24.6284 17.2613 24.3658 17.4271C24.2458 17.5101 24.1107 17.5402 23.9682 17.5101C23.473 17.4045 23.0603 17.005 22.7752 16.6055C22.5876 16.3417 22.4451 16.0553 22.325 15.7538C22.295 15.6859 22.2725 15.6181 22.25 15.5503L22.0699 14.9623C21.9574 14.5854 21.8223 14.0879 21.6572 13.5226C21.5897 13.2965 21.5222 13.0553 21.4547 12.8065L21.2971 12.2563C21.2146 11.9774 21.1395 11.6834 21.057 11.3895L20.9445 10.99C20.922 10.907 20.8994 10.8166 20.8694 10.7337C20.8319 10.598 20.7944 10.4699 20.7569 10.3342C20.7194 10.1985 20.6819 10.0628 20.6443 9.93468C20.6068 9.79901 20.5693 9.66333 20.5318 9.52765C20.4943 9.39197 20.4568 9.25629 20.4193 9.12061C20.3817 8.98493 20.3442 8.84926 20.3067 8.72112C20.2692 8.58544 20.2317 8.4573 20.1942 8.32162C20.1566 8.18594 20.1191 8.0578 20.0816 7.92212C20.0441 7.79398 20.0066 7.6583 19.9691 7.53016C19.9316 7.40202 19.894 7.27388 19.864 7.14574C19.8265 7.0176 19.7965 6.897 19.759 6.76885C19.7215 6.64825 19.6915 6.52765 19.6539 6.40705C19.6239 6.28644 19.5864 6.17338 19.5564 6.05277C19.5264 5.93971 19.4889 5.82664 19.4589 5.71358C19.4289 5.60805 19.3988 5.49499 19.3688 5.38946C19.3388 5.28393 19.3088 5.18594 19.2788 5.08041C19.2488 4.98242 19.2263 4.88443 19.1963 4.78644C19.1738 4.69599 19.1437 4.60554 19.1212 4.51509C19.0987 4.43217 19.0762 4.34926 19.0462 4.26634C19.0237 4.19097 19.0012 4.11559 18.9787 4.04021C18.9562 3.97237 18.9412 3.90453 18.9187 3.83669C18.9036 3.77639 18.8811 3.71609 18.8661 3.65579C18.8511 3.60303 18.8361 3.55026 18.8211 3.4975C18.8061 3.45227 18.7986 3.41458 18.7836 3.36936C18.7761 3.33921 18.7611 3.30152 18.7536 3.27137C18.7386 3.2186 18.7236 3.17338 18.6936 3.12815C18.6561 3.07539 18.626 3.02262 18.5735 2.99247C18.5285 2.96232 18.476 2.93971 18.4235 2.93971C18.3709 2.93971 18.3109 2.96232 18.2734 2.99247C18.2209 3.03016 18.1834 3.08292 18.1533 3.12815C18.1233 3.17338 18.1083 3.2186 18.0933 3.27137C18.0858 3.30152 18.0708 3.33921 18.0633 3.36936C18.0483 3.41458 18.0333 3.45227 18.0258 3.4975C18.0108 3.55026 17.9958 3.60303 17.9808 3.65579C17.9658 3.71609 17.9433 3.77639 17.9283 3.83669C17.9058 3.90453 17.8907 3.97237 17.8682 4.04021C17.8457 4.11559 17.8232 4.19097 17.8007 4.26634C17.7782 4.34926 17.7557 4.43217 17.7257 4.51509C17.7032 4.60554 17.6732 4.69599 17.6507 4.78644C17.6206 4.88443 17.5981 4.98242 17.5681 5.08041C17.5381 5.18594 17.5081 5.28393 17.4781 5.38946C17.4481 5.49499 17.4181 5.60805 17.388 5.71358C17.358 5.82664 17.3205 5.93971 17.2905 6.05277C17.2605 6.17338 17.223 6.28644 17.193 6.40705L16.7728 7.90705V7.91458C16.7353 8.05026 16.6978 8.1784 16.6603 8.31408C16.6227 8.44976 16.5852 8.5779 16.5477 8.71358C16.5102 8.84926 16.4727 8.98493 16.4352 9.11308C16.3977 9.24875 16.3601 9.38443 16.3226 9.52011C16.2851 9.65579 16.2476 9.79147 16.2101 9.92715C16.1726 10.0628 16.135 10.1985 16.0975 10.3266C16.06 10.4623 16.0225 10.5905 15.985 10.7261C15.9625 10.8091 15.94 10.8995 15.91 10.9824L15.7974 11.3819C15.7149 11.6759 15.6323 11.9699 15.5573 12.2488L15.3998 12.799C15.3998 12.799 15.3998 12.799 15.3998 12.8065C15.1822 13.5905 14.9871 14.2764 14.837 14.789C14.822 14.8493 14.807 14.902 14.7845 14.9623L14.6044 15.5503C14.5969 15.5653 14.5969 15.5804 14.5894 15.5955V15.6106C14.5069 15.8518 14.4019 16.093 14.2743 16.3116V16.3191C14.2143 16.4171 14.1543 16.5226 14.0867 16.6131C13.8016 17.0126 13.389 17.4121 12.8938 17.5176C12.7512 17.5478 12.6161 17.5176 12.4961 17.4347C12.241 17.2689 12.1435 16.8618 12.2485 16.5905C12.3535 16.3342 12.6161 16.1457 12.8938 16.2211C13.1339 16.2814 13.2914 16.5075 13.389 16.7186C13.404 16.7563 13.4265 16.7638 13.449 16.7261C14.4769 15.1432 11.6858 14.6005 11.8208 16.5528C11.8433 16.907 11.9034 17.2161 12.0909 17.5025C12.3235 17.8493 12.6387 18.0528 13.0588 18.098C14.3869 18.2488 15.4373 17.4648 15.8274 16.2287C15.9625 15.8141 16.0825 15.392 16.2026 14.9699C16.2926 14.6533 16.3826 14.3292 16.4652 14.0126L16.5702 13.6206C16.6603 13.2814 16.7503 12.9347 16.8403 12.5879H20.0366C20.1266 12.9347 20.2167 13.2739 20.3067 13.6206L20.4117 14.0126C20.4943 14.3367 20.5843 14.6533 20.6744 14.9699C20.7944 15.392 20.922 15.8141 21.0495 16.2287C21.4397 17.4648 22.4826 18.2488 23.8181 18.098C24.2383 18.0528 24.5534 17.8493 24.786 17.5025C24.9736 17.2161 25.0336 16.907 25.0561 16.5528C25.1761 14.593 22.385 15.1357 23.4129 16.7186ZM17.208 11.0427C17.5456 9.65579 17.8682 8.26886 18.2059 6.88192C18.2209 6.82162 18.2359 6.75378 18.2734 6.70101C18.3034 6.64825 18.3409 6.59549 18.4009 6.57287C18.4985 6.54272 18.5735 6.6784 18.6035 6.75378C18.626 6.80654 18.6335 6.85931 18.6485 6.90453C18.6711 6.98745 18.6936 7.0779 18.7086 7.16081C18.7536 7.33418 18.7911 7.50755 18.8361 7.68091C18.8811 7.85428 18.9187 8.02765 18.9637 8.20102C19.0087 8.37438 19.0462 8.54775 19.0837 8.72112C19.1212 8.89448 19.1663 9.06785 19.2038 9.24122C19.2413 9.41458 19.2863 9.58795 19.3238 9.76132C19.3613 9.93468 19.4063 10.108 19.4439 10.2814C19.4889 10.4548 19.5264 10.6282 19.5714 10.8015C19.5789 10.8467 19.5939 10.8844 19.6014 10.9297C19.6014 10.9447 19.6239 11.0578 19.6314 11.0578H17.208V11.0427Z" fill="#25A25F"/>
</svg>
