<svg width="67" height="24" viewBox="0 0 67 24" fill="none" xmlns="http://www.w3.org/2000/svg">
<path d="M7.35075 11.4113C7.83637 10.7333 9.13295 8.90981 9.30247 8.66699H7.77684C7.01629 9.73907 6.23289 10.8386 5.45857 11.9245C5.45857 11.9245 5.45857 8.91898 5.45857 8.66699C4.99126 8.66699 4.59727 8.66699 4.2124 8.66699C4.2124 10.4217 4.2124 12.346 4.2124 14.087C4.32698 14.087 5.15166 14.087 5.44944 14.087C5.45403 14.087 6.5948 12.4743 6.5948 12.4743C6.5948 12.4743 8.43198 14.8979 8.76185 15.3331H10.3287C9.32997 14.0183 8.34036 12.7171 7.35075 11.4113Z" fill="#B7B8C3"/>
<path d="M39.9529 11.4159C39.9529 10.8203 39.9529 8.99228 39.9529 8.66699C39.4856 8.66699 39.0912 8.66699 38.7065 8.66699C38.7065 9.58788 38.7065 10.5042 38.7065 11.4159C38.7065 11.8328 38.7065 12.2452 38.7065 12.6621C38.7065 13.5509 38.7065 14.4443 38.7065 15.3331C39.1511 15.3331 39.545 15.3331 39.9529 15.3331V12.6621C39.9529 12.6621 42.7383 12.6621 42.949 12.6621C42.949 12.1948 42.949 11.8008 42.949 11.4159C41.9458 11.4159 40.9518 11.4159 39.9529 11.4159Z" fill="#B7B8C3"/>
<path d="M45.5696 9.91317C45.5696 9.91317 49.5555 9.91317 49.8257 9.91317C49.8257 9.44585 49.8257 9.05184 49.8257 8.66699C48.3962 8.66699 44.7085 8.66699 44.3282 8.66699C44.3282 9.08391 44.3282 12.2452 44.3282 12.6621C44.7723 12.6621 49.5599 12.6621 49.8257 12.6621C49.8257 12.1948 49.8257 11.8008 49.8257 11.4159C48.3962 11.4159 46.9851 11.4159 45.5696 11.4159C45.5696 11.4159 45.5696 10.1789 45.5696 9.91317Z" fill="#B7B8C3"/>
<path d="M44.3277 15.3333H47.0035C47.6863 15.3333 48.3551 15.3333 49.0283 15.3333C49.2941 15.3333 49.5599 15.3333 49.8305 15.3333C49.8305 14.866 49.8305 14.472 49.8305 14.0871C47.984 14.0871 46.1607 14.0871 44.3325 14.0871C44.3277 14.5315 44.3277 14.9256 44.3277 15.3333Z" fill="#B7B8C3"/>
<path d="M22.8546 8.66699C22.8546 9.58788 22.8546 10.5042 22.8546 11.4159C21.8466 11.4159 20.8479 11.4159 19.8491 11.4159C19.8491 10.8203 19.8491 8.99228 19.8491 8.66699C19.3818 8.66699 18.9878 8.66699 18.6029 8.66699C18.6029 10.9074 18.6029 13.1157 18.6029 15.3331C19.0473 15.3331 19.4413 15.3331 19.8491 15.3331V12.6621C19.8491 12.6621 22.8271 12.6621 22.8546 12.6621C22.8546 13.5509 22.8546 14.4443 22.8546 15.3331C23.299 15.3331 23.693 15.3331 24.1007 15.3331V12.094C24.1007 11.2693 24.1007 8.99228 24.1007 8.66699C23.6334 8.66699 23.2394 8.66699 22.8546 8.66699Z" fill="#B7B8C3"/>
<path d="M55.4518 8.66699C55.4518 9.58788 55.4518 10.5042 55.4518 11.4159C54.4442 11.4159 53.4453 11.4159 52.4464 11.4159C52.4464 10.8203 52.4464 8.99228 52.4464 8.66699C51.9791 8.66699 51.5853 8.66699 51.2001 8.66699C51.2001 9.58788 51.2001 14.4397 51.2001 15.3331C51.6447 15.3331 52.0386 15.3331 52.4464 15.3331V12.6621C52.4464 12.6621 55.4107 12.6621 55.4518 12.6621C55.4518 13.5509 55.4518 14.4443 55.4518 15.3331C55.8964 15.3331 56.2902 15.3331 56.6981 15.3331C56.6981 15.3331 56.6981 8.99228 56.6981 8.66699C56.2308 8.66699 55.837 8.66699 55.4518 8.66699Z" fill="#B7B8C3"/>
<path d="M14.2598 8.6851C12.1522 8.47435 10.3975 10.2337 10.6037 12.3412C10.7595 13.8989 12.0194 15.1634 13.5817 15.3146C15.6892 15.5253 17.4439 13.766 17.2377 11.6585C17.082 10.1008 15.822 8.83629 14.2598 8.6851ZM14.1956 14.0684C12.8303 14.2425 11.6803 13.0925 11.8545 11.7272C11.9736 10.7972 12.7249 10.0458 13.655 9.9267C15.0203 9.7526 16.1702 10.9026 15.9961 12.2679C15.877 13.2025 15.1257 13.9539 14.1956 14.0684Z" fill="#B7B8C3"/>
<path d="M25.4706 8.66699C25.4706 9.1114 25.4706 9.50542 25.4706 9.91317H27.3718C27.3718 11.7275 27.3718 13.528 27.3718 15.3331C27.8164 15.3331 28.2103 15.3331 28.6182 15.3331C28.6182 15.3331 28.6182 10.6371 28.6182 9.91317C29.0077 9.91317 30.2718 9.91317 30.5193 9.91317C30.5193 9.44585 30.5193 9.05184 30.5193 8.66699C29.8828 8.66699 26.1075 8.66699 25.4706 8.66699Z" fill="#B7B8C3"/>
<path d="M58.0725 8.66699C58.0725 9.1114 58.0725 9.50542 58.0725 9.91317H59.9741C59.9741 11.7275 59.9741 13.528 59.9741 15.3331C60.4182 15.3331 60.8125 15.3331 61.2199 15.3331C61.2199 15.3331 61.2199 10.6371 61.2199 9.91317C61.6094 9.91317 62.8741 9.91317 63.1215 9.91317C63.1215 9.44585 63.1215 9.05184 63.1215 8.66699C62.4846 8.66699 58.7094 8.66699 58.0725 8.66699Z" fill="#B7B8C3"/>
<path d="M36.0766 8.66699C35.0917 10.2385 34.116 11.7916 33.1399 13.3493C33.1399 13.3493 33.1399 8.99228 33.1399 8.66699C32.6726 8.66699 32.2787 8.66699 31.894 8.66699C31.894 10.9074 31.894 13.1157 31.894 15.3331C32.3381 15.3331 33.3646 15.3331 33.3646 15.3331C33.3646 15.3331 35.7746 11.4938 36.0766 11.0127C36.0766 12.0573 36.0766 13.1111 36.0766 14.087C36.5212 14.087 36.915 14.087 37.3229 14.087C37.3229 14.087 37.3229 8.91898 37.3229 8.66699C37.1306 8.66699 36.3057 8.66699 36.0766 8.66699Z" fill="#B7B8C3"/>
</svg>
