<svg width="67" height="24" viewBox="0 0 67 24" fill="none" xmlns="http://www.w3.org/2000/svg">
<path d="M52.4644 7.95177C51.5414 7.95177 50.7925 8.67924 50.7925 9.5766C50.7925 10.474 51.5414 11.2014 52.4644 11.2014H55.6259V15.898H58.97V7.95177H52.4644ZM21.1066 11.137H24.4186C24.1588 10.4242 23.5363 9.953 22.7744 9.953C21.9713 9.953 21.3746 10.4438 21.1066 11.137ZM27.5548 12.2912L20.9657 12.2912C21.0747 13.3234 21.7643 14.046 22.7744 14.046C23.5284 14.046 24.1049 13.6231 24.3843 13.0248H27.5548C27.2192 14.7257 25.4191 16.3672 22.8015 16.3672C19.874 16.3672 17.9593 14.5291 17.9593 11.9995C17.9593 9.62607 19.8592 7.63184 22.8015 7.63184C25.9415 7.63184 27.6088 9.95582 27.5548 12.2912ZM12.5118 14.046C11.4089 14.046 10.6876 13.1848 10.6876 11.9995C10.6876 10.8874 11.4033 9.953 12.5118 9.953C13.2976 9.953 13.9364 10.4536 14.1808 11.2043H17.2165C16.9184 9.11165 14.9969 7.63184 12.5395 7.63184C9.59722 7.63184 7.69727 9.62607 7.69727 11.9995C7.69727 14.5291 9.612 16.3672 12.5395 16.3672C15.2616 16.3672 17.1144 14.6983 17.2928 12.6873H14.2427C14.0437 13.4579 13.401 14.046 12.5118 14.046ZM46.9819 13.0408C46.9819 12.5418 46.5658 12.1373 46.0523 12.1373H44.0743V13.9443H46.0523C46.5658 13.9443 46.9819 13.5398 46.9819 13.0408ZM49.7872 13.0841C49.7872 14.6382 48.4906 15.898 46.8914 15.898H41.1824V7.95177H44.0743V10.2702H46.8914C48.4906 10.2702 49.7872 11.53 49.7872 13.0841ZM36.796 7.95177L34.1576 11.628L31.52 7.95177H28.6284V15.898H31.52V11.5345L33.7292 14.6237H34.6636L36.796 11.5931V15.898H39.6875V7.95177H36.796ZM50.7925 12.3068H54.4418V15.898H50.7925V12.3068Z" fill="#25A25F"/>
</svg>
