<svg width="66" height="24" viewBox="0 0 66 24" fill="none" xmlns="http://www.w3.org/2000/svg">
<path d="M44.0331 7.6645V11.1566H40.1208V7.6645H37.9052V16.335H40.1208V13.4593H44.0331V16.335H46.2487V7.6645H44.0331Z" fill="#25A25F"/>
<path d="M34.582 7.6645V11.1566H31.448V7.6645H29.2323V13.4593H34.582V16.335H36.7977V7.6645H34.582Z" fill="#25A25F"/>
<path d="M18.4351 7.6645H10.0908V9.96721H13.1548V16.335H15.3705V9.96721H18.4351V7.6645Z" fill="#25A25F"/>
<path d="M23.7145 7.41797C21.2794 7.41797 19.3058 9.46949 19.3058 11.9994C19.3058 14.5293 21.2794 16.5815 23.7145 16.5815C26.1496 16.5815 28.1239 14.53 28.1239 11.9994C28.1239 9.46883 26.1496 7.41797 23.7145 7.41797ZM23.7145 9.80664C24.1382 9.80122 24.5539 9.92526 24.9088 10.163C25.2636 10.4007 25.5416 10.7414 25.7074 11.1417C25.8731 11.5421 25.9192 11.984 25.8398 12.4113C25.7603 12.8386 25.5589 13.2319 25.2611 13.5414C24.9633 13.8509 24.5826 14.0625 24.1674 14.1493C23.7522 14.236 23.3213 14.1942 22.9293 14.0289C22.5374 13.8636 22.2022 13.5824 21.9663 13.221C21.7304 12.8596 21.6045 12.4344 21.6046 11.9994C21.602 11.4216 21.8227 10.8664 22.2181 10.4554C22.6137 10.0443 23.1518 9.81104 23.7145 9.80664Z" fill="#25A25F"/>
<path d="M51.4998 7.41797C49.0646 7.41797 47.0911 9.46949 47.0911 11.9994C47.0911 14.5293 49.0646 16.5815 51.4998 16.5815C53.935 16.5815 55.909 14.53 55.909 11.9994C55.909 9.46883 53.935 7.41797 51.4998 7.41797ZM51.4998 9.80664C51.9236 9.80122 52.339 9.92526 52.6941 10.163C53.0488 10.4007 53.3268 10.7414 53.4925 11.1417C53.6582 11.5421 53.7044 11.984 53.625 12.4113C53.5456 12.8386 53.344 13.2319 53.0462 13.5414C52.7487 13.8509 52.368 14.0625 51.9526 14.1493C51.5376 14.236 51.1065 14.1942 50.7144 14.0289C50.3227 13.8636 49.9874 13.5824 49.7515 13.221C49.5155 12.8596 49.3899 12.4344 49.3899 11.9994C49.3872 11.4216 49.6079 10.8664 50.0035 10.4554C50.399 10.0443 50.937 9.81104 51.4998 9.80664Z" fill="#25A25F"/>
</svg>
