<svg width="67" height="24" viewBox="0 0 67 24" fill="none" xmlns="http://www.w3.org/2000/svg">
<path d="M1.25732 16.4713L3.56734 14.4816L6.91686 17.1736H4.37584V11.287H7.84087V15.7691H9.45788V9.8L11.9989 8.39551V17.1736H10.3819V12.4919L15.5794 15.1839" stroke="#F25A50" stroke-width="0.462003"/>
<path d="M19.4844 15.1811C19.7256 15.2726 19.8462 15.4389 19.8462 15.6801C19.8462 15.8547 19.7783 16.0016 19.6424 16.1208C19.5122 16.24 19.3209 16.2996 19.0686 16.2996C18.6473 16.2996 18.3729 16.1333 18.2454 15.8007L18.4782 15.6635C18.5669 15.9102 18.7637 16.0335 19.0686 16.0335C19.2266 16.0335 19.35 16.0003 19.4387 15.9337C19.5274 15.8644 19.5718 15.7743 19.5718 15.6635C19.5718 15.5637 19.5357 15.4847 19.4637 15.4264C19.3916 15.3655 19.2946 15.335 19.1726 15.335H18.8691V15.0689H19.0894C19.2086 15.0689 19.3015 15.0397 19.368 14.9815C19.4373 14.9206 19.472 14.8374 19.472 14.7321C19.472 14.6323 19.4304 14.5505 19.3472 14.4867C19.2668 14.4202 19.1601 14.3869 19.0271 14.3869C18.7693 14.3869 18.596 14.4909 18.5073 14.6988L18.2786 14.5657C18.4172 14.2691 18.6667 14.1208 19.0271 14.1208C19.2488 14.1208 19.4235 14.179 19.551 14.2955C19.6813 14.4091 19.7464 14.5491 19.7464 14.7154C19.7464 14.9289 19.6591 15.0841 19.4844 15.1811Z" fill="#F25A50"/>
<path d="M21.9223 15.9878C21.7089 16.1957 21.4511 16.2996 21.149 16.2996C20.8413 16.2996 20.5821 16.1957 20.3714 15.9878C20.1607 15.7771 20.0554 15.5179 20.0554 15.2102C20.0554 14.9025 20.1607 14.6447 20.3714 14.4368C20.5821 14.2262 20.8413 14.1208 21.149 14.1208C21.4539 14.1208 21.7117 14.2262 21.9223 14.4368C22.1358 14.6447 22.2425 14.9025 22.2425 15.2102C22.2425 15.5152 22.1358 15.7743 21.9223 15.9878ZM20.5668 15.7965C20.7248 15.9545 20.9189 16.0335 21.149 16.0335C21.379 16.0335 21.5731 15.9545 21.7311 15.7965C21.8891 15.633 21.9681 15.4375 21.9681 15.2102C21.9681 14.9802 21.8891 14.7861 21.7311 14.6281C21.5731 14.4673 21.379 14.3869 21.149 14.3869C20.9189 14.3869 20.7248 14.4673 20.5668 14.6281C20.4088 14.7861 20.3298 14.9802 20.3298 15.2102C20.3298 15.4375 20.4088 15.633 20.5668 15.7965Z" fill="#F25A50"/>
<path d="M22.7536 14.1707H24.2422V16.2497H23.9677V14.4368H23.028V15.3641C23.028 15.7106 22.9615 15.949 22.8284 16.0793C22.6982 16.2095 22.518 16.2664 22.2879 16.2497V15.9919C22.4487 16.0086 22.5665 15.9698 22.6413 15.8755C22.7162 15.7813 22.7536 15.6108 22.7536 15.3641V14.1707Z" fill="#F25A50"/>
<path d="M26.4825 15.9878C26.2691 16.1957 26.0113 16.2996 25.7091 16.2996C25.4014 16.2996 25.1423 16.1957 24.9316 15.9878C24.7209 15.7771 24.6156 15.5179 24.6156 15.2102C24.6156 14.9025 24.7209 14.6447 24.9316 14.4368C25.1423 14.2262 25.4014 14.1208 25.7091 14.1208C26.0141 14.1208 26.2719 14.2262 26.4825 14.4368C26.696 14.6447 26.8027 14.9025 26.8027 15.2102C26.8027 15.5152 26.696 15.7743 26.4825 15.9878ZM25.127 15.7965C25.285 15.9545 25.4791 16.0335 25.7091 16.0335C25.9392 16.0335 26.1333 15.9545 26.2913 15.7965C26.4493 15.633 26.5283 15.4375 26.5283 15.2102C26.5283 14.9802 26.4493 14.7861 26.2913 14.6281C26.1333 14.4673 25.9392 14.3869 25.7091 14.3869C25.4791 14.3869 25.285 14.4673 25.127 14.6281C24.969 14.7861 24.89 14.9802 24.89 15.2102C24.89 15.4375 24.969 15.633 25.127 15.7965Z" fill="#F25A50"/>
<path d="M26.8481 14.1707H28.5945V14.4368H27.8585V16.2497H27.5841V14.4368H26.8481V14.1707Z" fill="#F25A50"/>
<path d="M30.5067 15.9878C30.2933 16.1957 30.0355 16.2996 29.7333 16.2996C29.4256 16.2996 29.1665 16.1957 28.9558 15.9878C28.7451 15.7771 28.6398 15.5179 28.6398 15.2102C28.6398 14.9025 28.7451 14.6447 28.9558 14.4368C29.1665 14.2262 29.4256 14.1208 29.7333 14.1208C30.0383 14.1208 30.2961 14.2262 30.5067 14.4368C30.7202 14.6447 30.8269 14.9025 30.8269 15.2102C30.8269 15.5152 30.7202 15.7743 30.5067 15.9878ZM29.1512 15.7965C29.3092 15.9545 29.5033 16.0335 29.7333 16.0335C29.9634 16.0335 30.1575 15.9545 30.3155 15.7965C30.4735 15.633 30.5525 15.4375 30.5525 15.2102C30.5525 14.9802 30.4735 14.7861 30.3155 14.6281C30.1575 14.4673 29.9634 14.3869 29.7333 14.3869C29.5033 14.3869 29.3092 14.4673 29.1512 14.6281C28.9932 14.7861 28.9142 14.9802 28.9142 15.2102C28.9142 15.4375 28.9932 15.633 29.1512 15.7965Z" fill="#F25A50"/>
<path d="M32.6167 13.8381H31.5356V13.5969H32.6167V13.8381ZM31.4774 15.7716L32.7165 14.1707H32.9493V16.2497H32.6749V14.6489L31.4358 16.2497H31.203V14.1707H31.4774V15.7716Z" fill="#F25A50"/>
<path d="M35.4756 15.1811C35.7168 15.2726 35.8374 15.4389 35.8374 15.6801C35.8374 15.8547 35.7695 16.0016 35.6336 16.1208C35.5034 16.24 35.3121 16.2996 35.0598 16.2996C34.6385 16.2996 34.3641 16.1333 34.2365 15.8007L34.4694 15.6635C34.5581 15.9102 34.7549 16.0335 35.0598 16.0335C35.2178 16.0335 35.3412 16.0003 35.4299 15.9337C35.5186 15.8644 35.563 15.7743 35.563 15.6635C35.563 15.5637 35.5269 15.4847 35.4548 15.4264C35.3828 15.3655 35.2858 15.335 35.1638 15.335H34.8602V15.0689H35.0806C35.1998 15.0689 35.2927 15.0397 35.3592 14.9815C35.4285 14.9206 35.4632 14.8374 35.4632 14.7321C35.4632 14.6323 35.4216 14.5505 35.3384 14.4867C35.258 14.4202 35.1513 14.3869 35.0182 14.3869C34.7605 14.3869 34.5872 14.4909 34.4985 14.6988L34.2698 14.5657C34.4084 14.2691 34.6579 14.1208 35.0182 14.1208C35.24 14.1208 35.4146 14.179 35.5422 14.2955C35.6724 14.4091 35.7376 14.5491 35.7376 14.7154C35.7376 14.9289 35.6503 15.0841 35.4756 15.1811Z" fill="#F25A50"/>
<path d="M37.6433 15.0772V14.1707H37.9177V16.2497H37.6433V15.3433H36.4458V16.2497H36.1713V14.1707H36.4458V15.0772H37.6433Z" fill="#F25A50"/>
<path d="M40.2028 14.5782V14.1707H40.4773V16.2497H40.2028V15.8422C40.0116 16.1472 39.7316 16.2996 39.3629 16.2996C39.0663 16.2996 38.8127 16.1943 38.602 15.9836C38.3941 15.7729 38.2901 15.5152 38.2901 15.2102C38.2901 14.9053 38.3941 14.6475 38.602 14.4368C38.8127 14.2262 39.0663 14.1208 39.3629 14.1208C39.7316 14.1208 40.0116 14.2733 40.2028 14.5782ZM38.8016 15.7965C38.9596 15.9545 39.1536 16.0335 39.3837 16.0335C39.6138 16.0335 39.8078 15.9545 39.9658 15.7965C40.1238 15.633 40.2028 15.4375 40.2028 15.2102C40.2028 14.9802 40.1238 14.7861 39.9658 14.6281C39.8078 14.4673 39.6138 14.3869 39.3837 14.3869C39.1536 14.3869 38.9596 14.4673 38.8016 14.6281C38.6436 14.7861 38.5646 14.9802 38.5646 15.2102C38.5646 15.4375 38.6436 15.633 38.8016 15.7965Z" fill="#F25A50"/>
<path d="M41.5406 15.1686L42.655 16.2497H42.2891L41.2496 15.2477V16.2497H40.9751V14.1707H41.2496V15.0896L42.2392 14.1707H42.6134L41.5406 15.1686Z" fill="#F25A50"/>
<path d="M45.3749 15.0772V14.1707H45.6493V16.2497H45.3749V15.3433H44.1774V16.2497H43.903V14.1707H44.1774V15.0772H45.3749Z" fill="#F25A50"/>
<path d="M47.9345 14.5782V14.1707H48.2089V16.2497H47.9345V15.8422C47.7432 16.1472 47.4632 16.2996 47.0946 16.2996C46.798 16.2996 46.5443 16.1943 46.3336 15.9836C46.1257 15.7729 46.0218 15.5152 46.0218 15.2102C46.0218 14.9053 46.1257 14.6475 46.3336 14.4368C46.5443 14.2262 46.798 14.1208 47.0946 14.1208C47.4632 14.1208 47.7432 14.2733 47.9345 14.5782ZM46.5332 15.7965C46.6912 15.9545 46.8853 16.0335 47.1153 16.0335C47.3454 16.0335 47.5395 15.9545 47.6975 15.7965C47.8555 15.633 47.9345 15.4375 47.9345 15.2102C47.9345 14.9802 47.8555 14.7861 47.6975 14.6281C47.5395 14.4673 47.3454 14.3869 47.1153 14.3869C46.8853 14.3869 46.6912 14.4673 46.5332 14.6281C46.3752 14.7861 46.2962 14.9802 46.2962 15.2102C46.2962 15.4375 46.3752 15.633 46.5332 15.7965Z" fill="#F25A50"/>
<path d="M50.4532 14.1707V15.9836H50.7442V16.8069H50.4698V16.2497H48.7733V16.8069H48.4989V15.9836H48.7525C48.8939 15.7951 48.9646 15.5332 48.9646 15.1978V14.1707H50.4532ZM49.0852 15.9836H50.1787V14.4368H49.239V15.1978C49.239 15.5193 49.1877 15.7813 49.0852 15.9836Z" fill="#F25A50"/>
<path d="M51.9555 14.1208C52.266 14.1208 52.5141 14.2303 52.6998 14.4493C52.8911 14.6655 52.9867 14.9219 52.9867 15.2185C52.9867 15.2324 52.9839 15.2754 52.9784 15.3474H51.153C51.1807 15.5553 51.2694 15.7217 51.4191 15.8464C51.5688 15.9711 51.7559 16.0335 51.9805 16.0335C52.2965 16.0335 52.5196 15.9157 52.6499 15.6801L52.8911 15.8215C52.7996 15.9711 52.6735 16.089 52.5127 16.1749C52.3547 16.2581 52.1759 16.2996 51.9763 16.2996C51.6492 16.2996 51.3831 16.1971 51.178 15.9919C50.9728 15.7868 50.8703 15.5262 50.8703 15.2102C50.8703 14.897 50.9715 14.6378 51.1738 14.4327C51.3762 14.2248 51.6367 14.1208 51.9555 14.1208ZM51.9555 14.3869C51.7393 14.3869 51.5577 14.4507 51.4108 14.5782C51.2667 14.7057 51.1807 14.8734 51.153 15.0813H52.704C52.6735 14.8596 52.5889 14.6891 52.4503 14.5699C52.3062 14.4479 52.1412 14.3869 51.9555 14.3869Z" fill="#F25A50"/>
<path d="M54.7111 15.1686L55.6425 16.2497H55.3098L54.4616 15.2477V16.2497H54.1872V15.2477L53.3389 16.2497H53.0063L53.9377 15.1686L53.0479 14.1707H53.3805L54.1872 15.0938V14.1707H54.4616V15.0938L55.2683 14.1707H55.6009L54.7111 15.1686Z" fill="#F25A50"/>
<path d="M57.4048 15.0772V14.1707H57.6792V16.2497H57.4048V15.3433H56.2073V16.2497H55.9328V14.1707H56.2073V15.0772H57.4048Z" fill="#F25A50"/>
<path d="M59.9186 15.9878C59.7051 16.1957 59.4474 16.2996 59.1452 16.2996C58.8375 16.2996 58.5783 16.1957 58.3677 15.9878C58.157 15.7771 58.0516 15.5179 58.0516 15.2102C58.0516 14.9025 58.157 14.6447 58.3677 14.4368C58.5783 14.2262 58.8375 14.1208 59.1452 14.1208C59.4501 14.1208 59.7079 14.2262 59.9186 14.4368C60.132 14.6447 60.2388 14.9025 60.2388 15.2102C60.2388 15.5152 60.132 15.7743 59.9186 15.9878ZM58.5631 15.7965C58.7211 15.9545 58.9151 16.0335 59.1452 16.0335C59.3753 16.0335 59.5693 15.9545 59.7273 15.7965C59.8853 15.633 59.9643 15.4375 59.9643 15.2102C59.9643 14.9802 59.8853 14.7861 59.7273 14.6281C59.5693 14.4673 59.3753 14.3869 59.1452 14.3869C58.9151 14.3869 58.7211 14.4673 58.5631 14.6281C58.4051 14.7861 58.3261 14.9802 58.3261 15.2102C58.3261 15.4375 58.4051 15.633 58.5631 15.7965Z" fill="#F25A50"/>
<path d="M61.5837 16.2996C61.2704 16.2996 61.0098 16.1957 60.8019 15.9878C60.594 15.7743 60.4901 15.5152 60.4901 15.2102C60.4901 14.9025 60.594 14.6447 60.8019 14.4368C61.0098 14.2262 61.2704 14.1208 61.5837 14.1208C61.7888 14.1208 61.9731 14.1707 62.1367 14.2705C62.3002 14.3675 62.4194 14.4992 62.4943 14.6655L62.2697 14.7944C62.2143 14.6697 62.1242 14.5713 61.9995 14.4992C61.8775 14.4244 61.7389 14.3869 61.5837 14.3869C61.3536 14.3869 61.1595 14.4673 61.0015 14.6281C60.8435 14.7861 60.7645 14.9802 60.7645 15.2102C60.7645 15.4375 60.8435 15.633 61.0015 15.7965C61.1595 15.9545 61.3536 16.0335 61.5837 16.0335C61.7361 16.0335 61.8733 15.9975 61.9953 15.9254C62.12 15.8533 62.2171 15.7535 62.2864 15.626L62.5151 15.7591C62.4291 15.9254 62.303 16.0571 62.1367 16.1541C61.9704 16.2511 61.786 16.2996 61.5837 16.2996Z" fill="#F25A50"/>
<path d="M62.5358 14.1707H64.2822V14.4368H63.5462V16.2497H63.2718V14.4368H62.5358V14.1707Z" fill="#F25A50"/>
<path d="M64.8079 15.7716L66.047 14.1707H66.2798V16.2497H66.0054V14.6489L64.7663 16.2497H64.5334V14.1707H64.8079V15.7716Z" fill="#F25A50"/>
<path d="M22.3378 7.249C22.9932 7.249 23.5473 7.47754 24.0001 7.93461C24.4571 8.38737 24.6857 8.94147 24.6857 9.5969C24.6857 10.2523 24.4571 10.8086 24.0001 11.2657C23.5473 11.7184 22.9932 11.9448 22.3378 11.9448C21.7341 11.9448 21.2166 11.7508 20.7854 11.3627C20.3586 10.9746 20.1085 10.483 20.0352 9.88796H19.3172V11.8607H18.5734V7.33308H19.3172V9.17647H20.0546C20.1537 8.62022 20.4125 8.16099 20.8307 7.79878C21.2533 7.43226 21.7556 7.249 22.3378 7.249ZM22.3378 7.97342C21.8807 7.97342 21.4991 8.1265 21.1929 8.43265C20.8868 8.7388 20.7337 9.12689 20.7337 9.5969C20.7337 10.0583 20.8868 10.4464 21.1929 10.7611C21.5077 11.0673 21.8893 11.2204 22.3378 11.2204C22.7905 11.2204 23.17 11.0673 23.4762 10.7611C23.7866 10.4507 23.9418 10.0626 23.9418 9.5969C23.9418 9.1312 23.7866 8.74527 23.4762 8.43912C23.17 8.12865 22.7905 7.97342 22.3378 7.97342Z" fill="#F25A50"/>
<path d="M25.1242 8.62669H27.291V9.29937H25.8228V11.8607H25.1242V8.62669Z" fill="#F25A50"/>
<path d="M30.0089 10.2308H27.6157V9.55809H30.0089V10.2308Z" fill="#F25A50"/>
<path d="M34.1793 11.8607H33.4355V8.78839L31.301 11.8607H30.7189V7.33308H31.4627V10.4054L33.5972 7.33308H34.1793V11.8607Z" fill="#F25A50"/>
<path d="M37.024 9.91383V8.62669H37.7225V11.8607H37.024V10.5736H35.5428V11.8607H34.8442V8.62669H35.5428V9.91383H37.024Z" fill="#F25A50"/>
<path d="M41.2432 10.2114L42.5044 11.8607H41.7089L40.6093 10.3666V11.8607H39.9237V10.3795L38.8241 11.8607H38.0285L39.2898 10.2114L38.0932 8.62669H38.8888L39.9237 10.0432V8.62669H40.6093V10.0497L41.6442 8.62669H42.4397L41.2432 10.2114Z" fill="#F25A50"/>
<path d="M43.4984 10.6771L45.1542 8.62669H45.6911V11.8607H45.0055V9.80387L43.3497 11.8607H42.8128V8.62669H43.4984V10.6771Z" fill="#F25A50"/>
<path d="M48.4873 9.91383V8.62669H49.1859V11.8607H48.4873V10.5736H47.0061V11.8607H46.3076V8.62669H47.0061V9.91383H48.4873Z" fill="#F25A50"/>
<path d="M50.488 10.6771L52.1438 8.62669H52.6806V11.8607H51.995V9.80387L50.3392 11.8607H49.8023V8.62669H50.488V10.6771Z" fill="#F25A50"/>
<path d="M55.1276 8.54261C55.5674 8.54261 55.9468 8.70862 56.2659 9.04065C56.5807 9.36836 56.7381 9.76938 56.7381 10.2437C56.7381 10.7223 56.5807 11.1255 56.2659 11.4532C55.9512 11.7809 55.5717 11.9448 55.1276 11.9448C54.6403 11.9448 54.263 11.7637 53.9957 11.4015V13.1543H53.2971V8.62669H53.9957V9.09239C54.2587 8.72587 54.636 8.54261 55.1276 8.54261ZM54.2867 10.9875C54.4808 11.1816 54.7244 11.2786 55.0176 11.2786C55.3108 11.2786 55.5545 11.1816 55.7485 10.9875C55.9425 10.7892 56.0396 10.5412 56.0396 10.2437C56.0396 9.94617 55.9425 9.70039 55.7485 9.50634C55.5545 9.30799 55.3108 9.20881 55.0176 9.20881C54.7244 9.20881 54.4808 9.30799 54.2867 9.50634C54.0927 9.70039 53.9957 9.94617 53.9957 10.2437C53.9957 10.5369 54.0927 10.7849 54.2867 10.9875Z" fill="#F25A50"/>
<path d="M57.8628 10.6771L59.5186 8.62669H60.0555V11.8607H59.3698V9.80387L57.714 11.8607H57.1772V8.62669H57.8628V10.6771Z" fill="#F25A50"/>
<path d="M62.8517 9.91383V8.62669H63.5502V11.8607H62.8517V10.5736H61.3705V11.8607H60.6719V8.62669H61.3705V9.91383H62.8517Z" fill="#F25A50"/>
<path d="M64.1667 8.62669H66.3335V9.29937H64.8652V11.8607H64.1667V8.62669Z" fill="#F25A50"/>
<path d="M15.6112 16.7117C16.1816 15.604 16.5036 14.3475 16.5036 13.0157C16.5036 8.55047 12.8838 4.93066 8.41855 4.93066C3.9533 4.93066 0.333496 8.55047 0.333496 13.0157C0.333496 14.3475 0.655481 15.604 1.22585 16.7117H1.4885L3.68302 14.7482L4.02952 15.0947V17.4047H4.72252V11.6297H7.49454V16.0187H9.80456V10.0127L11.8836 8.62669V17.4047H12.3456V13.4777L15.3486 15.0947V16.7117H15.6112Z" fill="#F25A50"/>
<path d="M4.95353 11.8607H5.41553V12.3227H4.95353V11.8607Z" fill="#F25A50"/>
<path d="M4.95353 12.5537H5.41553V13.0157H4.95353V12.5537Z" fill="#F25A50"/>
<path d="M4.95353 13.2467H5.41553V13.7087H4.95353V13.2467Z" fill="#F25A50"/>
<path d="M5.64653 11.8607H6.10853V12.3227H5.64653V11.8607Z" fill="#F25A50"/>
<path d="M10.7286 9.7817H11.4216V10.2437H10.7286V9.7817Z" fill="#F25A50"/>
<path d="M10.7286 10.4747H11.4216V10.9367H10.7286V10.4747Z" fill="#F25A50"/>
<path d="M10.7286 11.1677H11.4216V11.6297H10.7286V11.1677Z" fill="#F25A50"/>
</svg>
