<svg width="29" height="13" viewBox="0 0 29 13" fill="none" xmlns="http://www.w3.org/2000/svg">
<path fill-rule="evenodd" clip-rule="evenodd" d="M3.32292 0C1.48772 0 0 1.60058 0 3.575V9.425C0 11.3994 1.48772 13 3.32292 13H23.2604C25.0956 13 26.5833 11.3994 26.5833 9.425V3.575C26.5833 1.60058 25.0956 0 23.2604 0H3.32292ZM3.32292 1.3C2.15506 1.3 1.20833 2.31855 1.20833 3.575V9.425C1.20833 10.6814 2.15506 11.7 3.32292 11.7H23.2604C24.4283 11.7 25.375 10.6814 25.375 9.425V3.575C25.375 2.31855 24.4283 1.3 23.2604 1.3H3.32292Z" fill="#B7B8C3"/>
<path d="M27.4896 8.775C28.363 8.48324 29 7.5751 29 6.5C29 5.4249 28.363 4.51676 27.4896 4.225V8.775Z" fill="#B7B8C3"/>
<path d="M2.11475 3.77539C2.11475 2.94696 2.78632 2.27539 3.61475 2.27539H22.9689C23.7973 2.27539 24.4689 2.94696 24.4689 3.77539V9.22539C24.4689 10.0538 23.7973 10.7254 22.9689 10.7254H3.61475C2.78632 10.7254 2.11475 10.0538 2.11475 9.22539V3.77539Z" fill="#3C3D48"/>
</svg>
