<svg width="28" height="28" viewBox="0 0 28 28" fill="none" xmlns="http://www.w3.org/2000/svg">
<path d="M15.1667 24.5V22.1667H17.5V24.5H15.1667ZM12.8333 22.1667V16.3333H15.1667V22.1667H12.8333ZM22.1667 18.6667V14H24.5V18.6667H22.1667ZM19.8333 14V11.6667H22.1667V14H19.8333ZM5.83333 16.3333V14H8.16667V16.3333H5.83333ZM3.5 14V11.6667H5.83333V14H3.5ZM14 5.83333V3.5H16.3333V5.83333H14ZM5.25 8.75H8.75V5.25H5.25V8.75ZM3.5 9.33333V4.66667C3.5 4.33611 3.61181 4.05903 3.83542 3.83542C4.05903 3.61181 4.33611 3.5 4.66667 3.5H9.33333C9.66389 3.5 9.94097 3.61181 10.1646 3.83542C10.3882 4.05903 10.5 4.33611 10.5 4.66667V9.33333C10.5 9.66389 10.3882 9.94097 10.1646 10.1646C9.94097 10.3882 9.66389 10.5 9.33333 10.5H4.66667C4.33611 10.5 4.05903 10.3882 3.83542 10.1646C3.61181 9.94097 3.5 9.66389 3.5 9.33333ZM5.25 22.75H8.75V19.25H5.25V22.75ZM3.5 23.3333V18.6667C3.5 18.3361 3.61181 18.059 3.83542 17.8354C4.05903 17.6118 4.33611 17.5 4.66667 17.5H9.33333C9.66389 17.5 9.94097 17.6118 10.1646 17.8354C10.3882 18.059 10.5 18.3361 10.5 18.6667V23.3333C10.5 23.6639 10.3882 23.941 10.1646 24.1646C9.94097 24.3882 9.66389 24.5 9.33333 24.5H4.66667C4.33611 24.5 4.05903 24.3882 3.83542 24.1646C3.61181 23.941 3.5 23.6639 3.5 23.3333ZM19.25 8.75H22.75V5.25H19.25V8.75ZM17.5 9.33333V4.66667C17.5 4.33611 17.6118 4.05903 17.8354 3.83542C18.059 3.61181 18.3361 3.5 18.6667 3.5H23.3333C23.6639 3.5 23.941 3.61181 24.1646 3.83542C24.3882 4.05903 24.5 4.33611 24.5 4.66667V9.33333C24.5 9.66389 24.3882 9.94097 24.1646 10.1646C23.941 10.3882 23.6639 10.5 23.3333 10.5H18.6667C18.3361 10.5 18.059 10.3882 17.8354 10.1646C17.6118 9.94097 17.5 9.66389 17.5 9.33333ZM19.8333 24.5V21H17.5V18.6667H22.1667V22.1667H24.5V24.5H19.8333ZM15.1667 16.3333V14H19.8333V16.3333H15.1667ZM10.5 16.3333V14H8.16667V11.6667H15.1667V14H12.8333V16.3333H10.5ZM11.6667 10.5V5.83333H14V8.16667H16.3333V10.5H11.6667ZM6.125 7.875V6.125H7.875V7.875H6.125ZM6.125 21.875V20.125H7.875V21.875H6.125ZM20.125 7.875V6.125H21.875V7.875H20.125Z" fill="#B7B8C3"/>
</svg>
