<svg width="20" height="20" viewBox="0 0 20 20" fill="none" xmlns="http://www.w3.org/2000/svg">
<path d="M10.0003 15L6.50033 16.5C5.94477 16.7361 5.41699 16.691 4.91699 16.3646C4.41699 16.0382 4.16699 15.5764 4.16699 14.9792V4.16667C4.16699 3.70833 4.33019 3.31597 4.65658 2.98958C4.98296 2.66319 5.37533 2.5 5.83366 2.5H10.0003C10.2364 2.5 10.4344 2.57986 10.5941 2.73958C10.7538 2.89931 10.8337 3.09722 10.8337 3.33333C10.8337 3.56944 10.7538 3.76736 10.5941 3.92708C10.4344 4.08681 10.2364 4.16667 10.0003 4.16667H5.83366V14.9583L10.0003 13.1667L14.167 14.9583V10C14.167 9.76389 14.2469 9.56597 14.4066 9.40625C14.5663 9.24653 14.7642 9.16667 15.0003 9.16667C15.2364 9.16667 15.4344 9.24653 15.5941 9.40625C15.7538 9.56597 15.8337 9.76389 15.8337 10V14.9792C15.8337 15.5764 15.5837 16.0382 15.0837 16.3646C14.5837 16.691 14.0559 16.7361 13.5003 16.5L10.0003 15ZM10.0003 4.16667H5.83366H10.8337H10.0003ZM14.167 5.83333H13.3337C13.0975 5.83333 12.8996 5.75347 12.7399 5.59375C12.5802 5.43403 12.5003 5.23611 12.5003 5C12.5003 4.76389 12.5802 4.56597 12.7399 4.40625C12.8996 4.24653 13.0975 4.16667 13.3337 4.16667H14.167V3.33333C14.167 3.09722 14.2469 2.89931 14.4066 2.73958C14.5663 2.57986 14.7642 2.5 15.0003 2.5C15.2364 2.5 15.4344 2.57986 15.5941 2.73958C15.7538 2.89931 15.8337 3.09722 15.8337 3.33333V4.16667H16.667C16.9031 4.16667 17.101 4.24653 17.2607 4.40625C17.4205 4.56597 17.5003 4.76389 17.5003 5C17.5003 5.23611 17.4205 5.43403 17.2607 5.59375C17.101 5.75347 16.9031 5.83333 16.667 5.83333H15.8337V6.66667C15.8337 6.90278 15.7538 7.10069 15.5941 7.26042C15.4344 7.42014 15.2364 7.5 15.0003 7.5C14.7642 7.5 14.5663 7.42014 14.4066 7.26042C14.2469 7.10069 14.167 6.90278 14.167 6.66667V5.83333Z" fill="#6F77FE"/>
</svg>
