<svg width="28" height="28" viewBox="0 0 28 28" fill="none" xmlns="http://www.w3.org/2000/svg">
<path d="M4.66683 24.5002C4.02516 24.5002 3.47586 24.2717 3.01891 23.8147C2.56197 23.3578 2.3335 22.8085 2.3335 22.1668V9.3335C2.3335 8.69183 2.56197 8.14252 3.01891 7.68558C3.47586 7.22864 4.02516 7.00016 4.66683 7.00016H9.3335V4.66683C9.3335 4.02516 9.56197 3.47586 10.0189 3.01891C10.4759 2.56197 11.0252 2.3335 11.6668 2.3335H16.3335C16.9752 2.3335 17.5245 2.56197 17.9814 3.01891C18.4384 3.47586 18.6668 4.02516 18.6668 4.66683V7.00016H23.3335C23.9752 7.00016 24.5245 7.22864 24.9814 7.68558C25.4384 8.14252 25.6668 8.69183 25.6668 9.3335V22.1668C25.6668 22.8085 25.4384 23.3578 24.9814 23.8147C24.5245 24.2717 23.9752 24.5002 23.3335 24.5002H4.66683ZM11.6668 7.00016H16.3335V4.66683H11.6668V7.00016Z" fill="#B7B8C3"/>
</svg>
