<svg width="20" height="20" viewBox="0 0 20 20" fill="none" xmlns="http://www.w3.org/2000/svg">
<path d="M10.0003 16.9372C9.80588 16.9372 9.60797 16.9025 9.40658 16.833C9.20519 16.7636 9.0281 16.6525 8.87533 16.4997L7.43783 15.1872C5.9656 13.84 4.63574 12.5031 3.44824 11.1768C2.26074 9.85037 1.66699 8.38856 1.66699 6.79134C1.66699 5.48579 2.10449 4.39551 2.97949 3.52051C3.85449 2.64551 4.94477 2.20801 6.25033 2.20801C6.98644 2.20801 7.68088 2.36426 8.33366 2.67676C8.98644 2.98926 9.54199 3.41634 10.0003 3.95801C10.4587 3.41634 11.0142 2.98926 11.667 2.67676C12.3198 2.36426 13.0142 2.20801 13.7503 2.20801C15.0559 2.20801 16.1462 2.64551 17.0212 3.52051C17.8962 4.39551 18.3337 5.48579 18.3337 6.79134C18.3337 8.38856 17.7434 9.85384 16.5628 11.1872C15.3823 12.5205 14.042 13.8608 12.542 15.208L11.1253 16.4997C10.9725 16.6525 10.7955 16.7636 10.5941 16.833C10.3927 16.9025 10.1948 16.9372 10.0003 16.9372Z" fill="#6F77FE"/>
</svg>
