<svg width="15" height="21" viewBox="0 0 15 21" fill="white" xmlns="http://www.w3.org/2000/svg">
  <path d="M6.54997 16.923L11.725 10.723H7.72497L8.44997 5.04799L3.82497 11.723H7.29997L6.54997 16.923ZM4.99997 13.723H1.89997C1.49997 13.723 1.20414 13.5438 1.01247 13.1855C0.820803 12.8272 0.841636 12.4813 1.07497 12.148L8.54997 1.39799C8.71664 1.16465 8.9333 1.00215 9.19997 0.910487C9.46664 0.818821 9.74164 0.822987 10.025 0.922987C10.3083 1.02299 10.5166 1.19799 10.65 1.44799C10.7833 1.69799 10.8333 1.96465 10.8 2.24799L9.99997 8.72299H13.875C14.3083 8.72299 14.6125 8.91465 14.7875 9.29799C14.9625 9.68132 14.9083 10.0397 14.625 10.373L6.39997 20.223C6.21664 20.4397 5.99164 20.5813 5.72497 20.648C5.4583 20.7147 5.19997 20.6897 4.94997 20.573C4.69997 20.4563 4.50414 20.2772 4.36247 20.0355C4.2208 19.7938 4.16664 19.5313 4.19997 19.248L4.99997 13.723Z" />
</svg>