<svg width="28" height="28" viewBox="0 0 28 28" fill="none" xmlns="http://www.w3.org/2000/svg">
<path d="M4.6665 22.1668V11.6668C4.6665 11.2974 4.74914 10.9474 4.91442 10.6168C5.0797 10.2863 5.30817 10.0141 5.59984 9.80016L12.5998 4.55016C13.0082 4.23905 13.4748 4.0835 13.9998 4.0835C14.5248 4.0835 14.9915 4.23905 15.3998 4.55016L22.3998 9.80016C22.6915 10.0141 22.92 10.2863 23.0853 10.6168C23.2505 10.9474 23.3332 11.2974 23.3332 11.6668V22.1668C23.3332 22.8085 23.1047 23.3578 22.6478 23.8147C22.1908 24.2717 21.6415 24.5002 20.9998 24.5002H17.4998C17.1693 24.5002 16.8922 24.3884 16.6686 24.1647C16.445 23.9411 16.3332 23.6641 16.3332 23.3335V17.5002C16.3332 17.1696 16.2214 16.8925 15.9978 16.6689C15.7741 16.4453 15.4971 16.3335 15.1665 16.3335H12.8332C12.5026 16.3335 12.2255 16.4453 12.0019 16.6689C11.7783 16.8925 11.6665 17.1696 11.6665 17.5002V23.3335C11.6665 23.6641 11.5547 23.9411 11.3311 24.1647C11.1075 24.3884 10.8304 24.5002 10.4998 24.5002H6.99984C6.35817 24.5002 5.80886 24.2717 5.35192 23.8147C4.89498 23.3578 4.6665 22.8085 4.6665 22.1668Z" fill="#B7B8C3"/>
</svg>
