<svg width="28" height="28" viewBox="0 0 28 28" fill="none" xmlns="http://www.w3.org/2000/svg">
<path d="M5.02729 9.61111C4.60715 9.61111 4.24749 9.46152 3.9483 9.16233C3.64911 8.86314 3.49951 8.50347 3.49951 8.08334V5.02778C3.49951 4.60764 3.64911 4.24798 3.9483 3.94879C4.24749 3.6496 4.60715 3.5 5.02729 3.5H8.08285C8.50299 3.5 8.86265 3.6496 9.16184 3.94879C9.46103 4.24798 9.61063 4.60764 9.61063 5.02778V8.08334C9.61063 8.50347 9.46103 8.86314 9.16184 9.16233C8.86265 9.46152 8.50299 9.61111 8.08285 9.61111H5.02729Z" fill="#6F77FE"/>
<path d="M19.9162 9.61111C19.496 9.61111 19.1364 9.46152 18.8372 9.16233C18.538 8.86314 18.3884 8.50347 18.3884 8.08334V5.02778C18.3884 4.60764 18.538 4.24798 18.8372 3.94879C19.1364 3.6496 19.496 3.5 19.9162 3.5H22.9717C23.3919 3.5 23.7515 3.6496 24.0507 3.94879C24.3499 4.24798 24.4995 4.60764 24.4995 5.02778V8.08334C24.4995 8.50347 24.3499 8.86314 24.0507 9.16233C23.7515 9.46152 23.3919 9.61111 22.9717 9.61111H19.9162Z" fill="#6F77FE"/>
<path d="M12.4718 9.61111C12.0516 9.61111 11.692 9.46152 11.3928 9.16233C11.0936 8.86314 10.944 8.50347 10.944 8.08334V5.02778C10.944 4.60764 11.0936 4.24798 11.3928 3.94879C11.692 3.6496 12.0516 3.5 12.4718 3.5H15.5273C15.9475 3.5 16.3071 3.6496 16.6063 3.94879C16.9055 4.24798 17.0551 4.60764 17.0551 5.02778V8.08334C17.0551 8.50347 16.9055 8.86314 16.6063 9.16233C16.3071 9.46152 15.9475 9.61111 15.5273 9.61111H12.4718Z" fill="#6F77FE"/>
<path d="M12.4718 17.0557C12.0516 17.0557 11.692 16.9061 11.3928 16.6069C11.0936 16.3077 10.944 15.9481 10.944 15.5279V12.4724C10.944 12.0522 11.0936 11.6926 11.3928 11.3934C11.692 11.0942 12.0516 10.9446 12.4718 10.9446H15.5273C15.9475 10.9446 16.3071 11.0942 16.6063 11.3934C16.9055 11.6926 17.0551 12.0522 17.0551 12.4724V15.5279C17.0551 15.9481 16.9055 16.3077 16.6063 16.6069C16.3071 16.9061 15.9475 17.0557 15.5273 17.0557H12.4718Z" fill="#6F77FE"/>
<path d="M12.4718 24.5004C12.0516 24.5004 11.692 24.3508 11.3928 24.0516C11.0936 23.7524 10.944 23.3927 10.944 22.9726V19.917C10.944 19.4969 11.0936 19.1372 11.3928 18.8381C11.692 18.5389 12.0516 18.3893 12.4718 18.3893H15.5273C15.9475 18.3893 16.3071 18.5389 16.6063 18.8381C16.9055 19.1372 17.0551 19.4969 17.0551 19.917V22.9726C17.0551 23.3927 16.9055 23.7524 16.6063 24.0516C16.3071 24.3508 15.9475 24.5004 15.5273 24.5004H12.4718Z" fill="#6F77FE"/>
<path d="M19.9162 17.0557C19.496 17.0557 19.1364 16.9061 18.8372 16.6069C18.538 16.3077 18.3884 15.9481 18.3884 15.5279V12.4724C18.3884 12.0522 18.538 11.6926 18.8372 11.3934C19.1364 11.0942 19.496 10.9446 19.9162 10.9446H22.9717C23.3919 10.9446 23.7515 11.0942 24.0507 11.3934C24.3499 11.6926 24.4995 12.0522 24.4995 12.4724V15.5279C24.4995 15.9481 24.3499 16.3077 24.0507 16.6069C23.7515 16.9061 23.3919 17.0557 22.9717 17.0557H19.9162Z" fill="#6F77FE"/>
<path d="M19.9162 24.5004C19.496 24.5004 19.1364 24.3508 18.8372 24.0516C18.538 23.7524 18.3884 23.3927 18.3884 22.9726V19.917C18.3884 19.4969 18.538 19.1372 18.8372 18.8381C19.1364 18.5389 19.496 18.3893 19.9162 18.3893H22.9717C23.3919 18.3893 23.7515 18.5389 24.0507 18.8381C24.3499 19.1372 24.4995 19.4969 24.4995 19.917V22.9726C24.4995 23.3927 24.3499 23.7524 24.0507 24.0516C23.7515 24.3508 23.3919 24.5004 22.9717 24.5004H19.9162Z" fill="#6F77FE"/>
<path d="M5.02729 17.0557C4.60715 17.0557 4.24749 16.9061 3.9483 16.6069C3.64911 16.3077 3.49951 15.9481 3.49951 15.5279V12.4724C3.49951 12.0522 3.64911 11.6926 3.9483 11.3934C4.24749 11.0942 4.60715 10.9446 5.02729 10.9446H8.08285C8.50299 10.9446 8.86265 11.0942 9.16184 11.3934C9.46103 11.6926 9.61063 12.0522 9.61063 12.4724V15.5279C9.61063 15.9481 9.46103 16.3077 9.16184 16.6069C8.86265 16.9061 8.50299 17.0557 8.08285 17.0557H5.02729Z" fill="#6F77FE"/>
<path d="M5.02729 24.5004C4.60715 24.5004 4.24749 24.3508 3.9483 24.0516C3.64911 23.7524 3.49951 23.3927 3.49951 22.9726V19.917C3.49951 19.4969 3.64911 19.1372 3.9483 18.8381C4.24749 18.5389 4.60715 18.3893 5.02729 18.3893H8.08285C8.50299 18.3893 8.86265 18.5389 9.16184 18.8381C9.46103 19.1372 9.61063 19.4969 9.61063 19.917V22.9726C9.61063 23.3927 9.46103 23.7524 9.16184 24.0516C8.86265 24.3508 8.50299 24.5004 8.08285 24.5004H5.02729Z" fill="#6F77FE"/>
</svg>
