<svg width="24" height="24" xmlns="http://www.w3.org/2000/svg" fill="none">

 <g>
  <title>Layer 1</title>
  <path stroke="null" id="svg_1" fill="#6F77FE" d="m11.9759,17.08434c0.33791,0 0.6212,-0.11658 0.84985,-0.34985c0.22865,-0.23327 0.34292,-0.52228 0.34292,-0.86702l0,-2.43373l2.38554,0c0.33791,0 0.6212,-0.11658 0.84985,-0.34985c0.22865,-0.23327 0.34292,-0.52228 0.34292,-0.86702c0,-0.34478 -0.11427,-0.63378 -0.34292,-0.86702c-0.22865,-0.23324 -0.51194,-0.34985 -0.84985,-0.34985l-2.38554,0l0,-2.43373c0,-0.34478 -0.11427,-0.63378 -0.34292,-0.86702c-0.22865,-0.23324 -0.51194,-0.34985 -0.84985,-0.34985c-0.33791,0 -0.6212,0.11661 -0.84985,0.34985c-0.22865,0.23324 -0.34292,0.52224 -0.34292,0.86702l0,2.43373l-2.38554,0c-0.33791,0 -0.6212,0.11661 -0.84985,0.34985c-0.22865,0.23324 -0.34292,0.52224 -0.34292,0.86702c0,0.34474 0.11427,0.63374 0.34292,0.86702c0.22865,0.23327 0.51194,0.34985 0.84985,0.34985l2.38554,0l0,2.43373c0,0.34474 0.11427,0.63374 0.34292,0.86702c0.22865,0.23327 0.51194,0.34985 0.84985,0.34985zm-7.15663,4.86747c-0.65602,0 -1.21762,-0.23826 -1.68479,-0.71491c-0.46717,-0.47665 -0.70075,-1.04955 -0.70075,-1.71883l0,-14.60241c0,-0.66928 0.23358,-1.24221 0.70075,-1.71883c0.46717,-0.47661 1.02877,-0.71491 1.68479,-0.71491l14.31325,0c0.65602,0 1.21758,0.2383 1.68479,0.71491c0.46721,0.47661 0.70075,1.04955 0.70075,1.71883l0,14.60241c0,0.66928 -0.23354,1.24218 -0.70075,1.71883c-0.46721,0.47665 -1.02877,0.71491 -1.68479,0.71491l-14.31325,0zm0,-2.43373l14.31325,0l0,-14.60241l-14.31325,0l0,14.60241zm-4.77108,7.3012c-0.65602,0 -1.21762,-0.23826 -1.68479,-0.71491c-0.46717,-0.47665 -0.70075,-1.04955 -0.70075,-1.71883l0,-15.81928c0,-0.34478 0.1143,-0.63378 0.34292,-0.86702c0.22862,-0.23324 0.5119,-0.34985 0.84985,-0.34985c0.33795,0 0.62123,0.11661 0.84985,0.34985c0.22862,0.23324 0.34292,0.52224 0.34292,0.86702l0,15.81928l15.50602,0c0.33791,0 0.6212,0.11658 0.84985,0.34985c0.22865,0.23327 0.34292,0.52228 0.34292,0.86702c0,0.34474 -0.11427,0.63374 -0.34292,0.86702c-0.22865,0.23327 -0.51194,0.34985 -0.84985,0.34985l-15.50602,0z"/>
 </g>
</svg>