<svg width="28" height="28" viewBox="0 0 28 28" fill="none" xmlns="http://www.w3.org/2000/svg">
<path d="M12.6291 25.6663C12.1041 25.6663 11.6521 25.4913 11.2729 25.1413C10.8937 24.7913 10.6653 24.3636 10.5875 23.858L10.325 21.933C10.0722 21.8358 9.834 21.7191 9.61039 21.583C9.38678 21.4469 9.16803 21.3011 8.95414 21.1455L7.14581 21.9038C6.6597 22.1177 6.17359 22.1372 5.68748 21.9622C5.20137 21.7872 4.8222 21.4761 4.54998 21.0288L3.17914 18.6372C2.90692 18.19 2.82914 17.7136 2.94581 17.208C3.06248 16.7025 3.32498 16.2844 3.73331 15.9538L5.27914 14.7872C5.2597 14.6511 5.24998 14.5198 5.24998 14.3934V13.6059C5.24998 13.4795 5.2597 13.3483 5.27914 13.2122L3.73331 12.0455C3.32498 11.715 3.06248 11.2969 2.94581 10.7913C2.82914 10.2858 2.90692 9.8094 3.17914 9.36217L4.54998 6.97051C4.8222 6.52329 5.20137 6.21217 5.68748 6.03717C6.17359 5.86217 6.6597 5.88162 7.14581 6.09551L8.95414 6.85384C9.16803 6.69829 9.39164 6.55245 9.62498 6.41634C9.85831 6.28023 10.0916 6.16356 10.325 6.06634L10.5875 4.14134C10.6653 3.63579 10.8937 3.20801 11.2729 2.85801C11.6521 2.50801 12.1041 2.33301 12.6291 2.33301H15.3708C15.8958 2.33301 16.3479 2.50801 16.7271 2.85801C17.1062 3.20801 17.3347 3.63579 17.4125 4.14134L17.675 6.06634C17.9278 6.16356 18.1659 6.28023 18.3896 6.41634C18.6132 6.55245 18.8319 6.69829 19.0458 6.85384L20.8541 6.09551C21.3403 5.88162 21.8264 5.86217 22.3125 6.03717C22.7986 6.21217 23.1778 6.52329 23.45 6.97051L24.8208 9.36217C25.093 9.8094 25.1708 10.2858 25.0541 10.7913C24.9375 11.2969 24.675 11.715 24.2666 12.0455L22.7208 13.2122C22.7403 13.3483 22.75 13.4795 22.75 13.6059V14.3934C22.75 14.5198 22.7305 14.6511 22.6916 14.7872L24.2375 15.9538C24.6458 16.2844 24.9083 16.7025 25.025 17.208C25.1416 17.7136 25.0639 18.19 24.7916 18.6372L23.3916 21.0288C23.1194 21.4761 22.7403 21.7872 22.2541 21.9622C21.768 22.1372 21.2819 22.1177 20.7958 21.9038L19.0458 21.1455C18.8319 21.3011 18.6083 21.4469 18.375 21.583C18.1416 21.7191 17.9083 21.8358 17.675 21.933L17.4125 23.858C17.3347 24.3636 17.1062 24.7913 16.7271 25.1413C16.3479 25.4913 15.8958 25.6663 15.3708 25.6663H12.6291ZM14.0583 18.083C15.1861 18.083 16.1486 17.6844 16.9458 16.8872C17.743 16.09 18.1416 15.1275 18.1416 13.9997C18.1416 12.8719 17.743 11.9094 16.9458 11.1122C16.1486 10.315 15.1861 9.91634 14.0583 9.91634C12.9111 9.91634 11.9437 10.315 11.1562 11.1122C10.3687 11.9094 9.97498 12.8719 9.97498 13.9997C9.97498 15.1275 10.3687 16.09 11.1562 16.8872C11.9437 17.6844 12.9111 18.083 14.0583 18.083Z" fill="#B7B8C3"/>
</svg>
