<svg width="20" height="20" viewBox="0 0 20 20" fill="none" xmlns="http://www.w3.org/2000/svg">
<path d="M4.99967 19.167C4.54134 19.167 4.14898 19.0038 3.82259 18.6774C3.4962 18.351 3.33301 17.9587 3.33301 17.5003V8.33366C3.33301 7.87533 3.4962 7.48296 3.82259 7.15658C4.14898 6.83019 4.54134 6.66699 4.99967 6.66699H6.66634C6.90245 6.66699 7.10037 6.74685 7.26009 6.90658C7.41981 7.0663 7.49967 7.26421 7.49967 7.50033C7.49967 7.73644 7.41981 7.93435 7.26009 8.09408C7.10037 8.2538 6.90245 8.33366 6.66634 8.33366H4.99967V17.5003H14.9997V8.33366H13.333C13.0969 8.33366 12.899 8.2538 12.7393 8.09408C12.5795 7.93435 12.4997 7.73644 12.4997 7.50033C12.4997 7.26421 12.5795 7.0663 12.7393 6.90658C12.899 6.74685 13.0969 6.66699 13.333 6.66699H14.9997C15.458 6.66699 15.8504 6.83019 16.1768 7.15658C16.5031 7.48296 16.6663 7.87533 16.6663 8.33366V17.5003C16.6663 17.9587 16.5031 18.351 16.1768 18.6774C15.8504 19.0038 15.458 19.167 14.9997 19.167H4.99967ZM9.16634 4.02116L8.41634 4.77116C8.24967 4.93783 8.05523 5.01769 7.83301 5.01074C7.61079 5.0038 7.41634 4.91699 7.24967 4.75033C7.0969 4.58366 7.01704 4.38921 7.01009 4.16699C7.00315 3.94477 7.08301 3.75033 7.24967 3.58366L9.41634 1.41699C9.58301 1.25033 9.77745 1.16699 9.99967 1.16699C10.2219 1.16699 10.4163 1.25033 10.583 1.41699L12.7497 3.58366C12.9025 3.73644 12.9788 3.92741 12.9788 4.15658C12.9788 4.38574 12.9025 4.58366 12.7497 4.75033C12.583 4.91699 12.3851 5.00033 12.1559 5.00033C11.9268 5.00033 11.7288 4.91699 11.5622 4.75033L10.833 4.02116V12.5003C10.833 12.7364 10.7531 12.9344 10.5934 13.0941C10.4337 13.2538 10.2358 13.3337 9.99967 13.3337C9.76356 13.3337 9.56565 13.2538 9.40592 13.0941C9.2462 12.9344 9.16634 12.7364 9.16634 12.5003V4.02116Z" fill="#6F77FE"/>
</svg>
