<svg width="19" height="13" viewBox="0 0 19 13" fill="none" xmlns="http://www.w3.org/2000/svg">
<path fill-rule="evenodd" clip-rule="evenodd" d="M17.8824 0H16.7647C16.1474 0 15.6471 0.545653 15.6471 1.21875V11.7812C15.6471 12.4543 16.1474 13 16.7647 13H17.8824C18.4996 13 19 12.4543 19 11.7812V1.21875C19 0.545653 18.4996 0 17.8824 0ZM11.549 2.84375H12.6667C13.2839 2.84375 13.7843 3.3894 13.7843 4.0625V11.7812C13.7843 12.4543 13.2839 13 12.6667 13H11.549C10.9318 13 10.4314 12.4543 10.4314 11.7812V4.0625C10.4314 3.3894 10.9318 2.84375 11.549 2.84375ZM7.45098 5.6875H6.33333C5.71607 5.6875 5.21569 6.23315 5.21569 6.90625V11.7812C5.21569 12.4543 5.71607 13 6.33333 13H7.45098C8.06824 13 8.56863 12.4543 8.56863 11.7812V6.90625C8.56863 6.23315 8.06824 5.6875 7.45098 5.6875ZM2.23529 8.125H1.11765C0.500388 8.125 0 8.67065 0 9.34375V11.7812C0 12.4543 0.500388 13 1.11765 13H2.23529C2.85255 13 3.35294 12.4543 3.35294 11.7812V9.34375C3.35294 8.67065 2.85255 8.125 2.23529 8.125Z" fill="#3C3D48"/>
</svg>
