<svg width="20" height="20" viewBox="0 0 20 20" fill="none" xmlns="http://www.w3.org/2000/svg">
<path d="M9.99984 12.4788C9.88873 12.4788 9.78456 12.4615 9.68734 12.4268C9.59012 12.392 9.49984 12.333 9.4165 12.2497L5.58317 8.41634C5.43039 8.26356 5.354 8.06912 5.354 7.83301C5.354 7.5969 5.43039 7.40245 5.58317 7.24967C5.73595 7.0969 5.93039 7.02051 6.1665 7.02051C6.40262 7.02051 6.59706 7.0969 6.74984 7.24967L9.99984 10.4997L13.2498 7.24967C13.4026 7.0969 13.5971 7.02051 13.8332 7.02051C14.0693 7.02051 14.2637 7.0969 14.4165 7.24967C14.5693 7.40245 14.6457 7.5969 14.6457 7.83301C14.6457 8.06912 14.5693 8.26356 14.4165 8.41634L10.5832 12.2497C10.4998 12.333 10.4096 12.392 10.3123 12.4268C10.2151 12.4615 10.1109 12.4788 9.99984 12.4788Z" fill="#B7B8C3"/>
</svg>
