<svg width="10" height="6" viewBox="0 0 10 6" fill="none" xmlns="http://www.w3.org/2000/svg">
<path d="M4.99984 5.47884C4.88873 5.47884 4.78456 5.46148 4.68734 5.42676C4.59012 5.39204 4.49984 5.33301 4.4165 5.24967L0.583171 1.41634C0.430393 1.26356 0.354004 1.06912 0.354004 0.833008C0.354004 0.596897 0.430393 0.402452 0.583171 0.249674C0.735948 0.0968967 0.930393 0.0205078 1.1665 0.0205078C1.40262 0.0205078 1.59706 0.0968967 1.74984 0.249674L4.99984 3.49967L8.24984 0.249674C8.40262 0.0968967 8.59706 0.0205078 8.83317 0.0205078C9.06928 0.0205078 9.26373 0.0968967 9.4165 0.249674C9.56928 0.402452 9.64567 0.596897 9.64567 0.833008C9.64567 1.06912 9.56928 1.26356 9.4165 1.41634L5.58317 5.24967C5.49984 5.33301 5.40956 5.39204 5.31234 5.42676C5.21512 5.46148 5.11095 5.47884 4.99984 5.47884Z" fill="#B7B8C3"/>
</svg>
