<svg width="17" height="13" viewBox="0 0 17 13" fill="none" xmlns="http://www.w3.org/2000/svg">
<path fill-rule="evenodd" clip-rule="evenodd" d="M8.50047 2.69984C10.967 2.69995 13.3393 3.70936 15.1269 5.51942C15.2615 5.65916 15.4766 5.6574 15.6092 5.51547L16.896 4.13235C16.9631 4.06036 17.0006 3.96285 17 3.86139C16.9994 3.75993 16.9609 3.6629 16.893 3.59175C12.2011 -1.19725 4.79908 -1.19725 0.107163 3.59175C0.0391973 3.66284 0.000634479 3.75985 7.75932e-06 3.86131C-0.00061896 3.96277 0.0367421 4.06031 0.103824 4.13235L1.39096 5.51547C1.52346 5.65761 1.73878 5.65938 1.87331 5.51942C3.66116 3.70924 6.03367 2.69983 8.50047 2.69984ZM8.50047 7.19971C9.85568 7.19962 11.1625 7.73611 12.1671 8.70493C12.303 8.84243 12.517 8.83945 12.6494 8.69822L13.9347 7.3151C14.0024 7.24255 14.04 7.14413 14.039 7.04186C14.038 6.93959 13.9986 6.84201 13.9295 6.77094C10.8704 3.74028 6.13308 3.74028 3.074 6.77094C3.0049 6.84201 2.96548 6.93964 2.96457 7.04194C2.96366 7.14425 3.00135 7.24266 3.06918 7.3151L4.35409 8.69822C4.48654 8.83945 4.70057 8.84243 4.83644 8.70493C5.84034 7.73675 7.14615 7.2003 8.50047 7.19971ZM11.0751 10.2273C11.0771 10.3299 11.0392 10.4288 10.9705 10.5006L8.74721 12.8902C8.68203 12.9605 8.59318 13 8.50047 13C8.40775 13 8.3189 12.9605 8.25372 12.8902L6.03008 10.5006C5.96139 10.4287 5.9236 10.3298 5.92564 10.2272C5.92767 10.1247 5.96935 10.0276 6.04084 9.95883C7.4607 8.67978 9.54023 8.67978 10.9601 9.95883C11.0315 10.0276 11.0731 10.1248 11.0751 10.2273Z" fill="#3C3D48"/>
</svg>
