<svg width="303" height="204" viewBox="0 0 303 204" fill="none" xmlns="http://www.w3.org/2000/svg">
<rect width="302.857" height="204.008" rx="8" fill="#FAFAFA"/>
<path d="M172.762 94.0039C172.006 94.0039 171.373 93.7484 170.862 93.2372C170.351 92.7261 170.095 92.0928 170.095 91.3372C170.095 90.5817 170.351 89.9483 170.862 89.4372C171.373 88.9261 172.006 88.6706 172.762 88.6706C173.517 88.6706 174.151 88.9261 174.662 89.4372C175.173 89.9483 175.428 90.5817 175.428 91.3372C175.428 92.0928 175.173 92.7261 174.662 93.2372C174.151 93.7484 173.517 94.0039 172.762 94.0039ZM172.762 104.671C172.006 104.671 171.373 104.415 170.862 103.904C170.351 103.393 170.095 102.759 170.095 102.004C170.095 101.248 170.351 100.615 170.862 100.104C171.373 99.5928 172.006 99.3372 172.762 99.3372C173.517 99.3372 174.151 99.5928 174.662 100.104C175.173 100.615 175.428 101.248 175.428 102.004C175.428 102.759 175.173 103.393 174.662 103.904C174.151 104.415 173.517 104.671 172.762 104.671ZM172.762 115.337C172.006 115.337 171.373 115.082 170.862 114.571C170.351 114.059 170.095 113.426 170.095 112.671C170.095 111.915 170.351 111.282 170.862 110.771C171.373 110.259 172.006 110.004 172.762 110.004C173.517 110.004 174.151 110.259 174.662 110.771C175.173 111.282 175.428 111.915 175.428 112.671C175.428 113.426 175.173 114.059 174.662 114.571C174.151 115.082 173.517 115.337 172.762 115.337ZM140.762 126.004C140.006 126.004 139.373 125.748 138.862 125.237C138.351 124.726 138.095 124.093 138.095 123.337C138.095 122.582 138.351 121.948 138.862 121.437C139.373 120.926 140.006 120.671 140.762 120.671C141.517 120.671 142.151 120.926 142.662 121.437C143.173 121.948 143.428 122.582 143.428 123.337C143.428 124.093 143.173 124.726 142.662 125.237C142.151 125.748 141.517 126.004 140.762 126.004ZM151.428 126.004C150.673 126.004 150.04 125.748 149.528 125.237C149.017 124.726 148.762 124.093 148.762 123.337C148.762 122.582 149.017 121.948 149.528 121.437C150.04 120.926 150.673 120.671 151.428 120.671C152.184 120.671 152.817 120.926 153.328 121.437C153.84 121.948 154.095 122.582 154.095 123.337C154.095 124.093 153.84 124.726 153.328 125.237C152.817 125.748 152.184 126.004 151.428 126.004ZM162.095 126.004C161.34 126.004 160.706 125.748 160.195 125.237C159.684 124.726 159.428 124.093 159.428 123.337C159.428 122.582 159.684 121.948 160.195 121.437C160.706 120.926 161.34 120.671 162.095 120.671C162.851 120.671 163.484 120.926 163.995 121.437C164.506 121.948 164.762 122.582 164.762 123.337C164.762 124.093 164.506 124.726 163.995 125.237C163.484 125.748 162.851 126.004 162.095 126.004ZM172.762 126.004C172.006 126.004 171.373 125.748 170.862 125.237C170.351 124.726 170.095 124.093 170.095 123.337C170.095 122.582 170.351 121.948 170.862 121.437C171.373 120.926 172.006 120.671 172.762 120.671C173.517 120.671 174.151 120.926 174.662 121.437C175.173 121.948 175.428 122.582 175.428 123.337C175.428 124.093 175.173 124.726 174.662 125.237C174.151 125.748 173.517 126.004 172.762 126.004ZM127.428 123.337V83.3372C127.428 81.8706 127.951 80.615 128.995 79.5706C130.04 78.5261 131.295 78.0039 132.762 78.0039H172.762C173.517 78.0039 174.151 78.2595 174.662 78.7706C175.173 79.2817 175.428 79.915 175.428 80.6706C175.428 81.4261 175.173 82.0595 174.662 82.5706C174.151 83.0817 173.517 83.3372 172.762 83.3372H132.762V123.337C132.762 124.093 132.506 124.726 131.995 125.237C131.484 125.748 130.851 126.004 130.095 126.004C129.34 126.004 128.706 125.748 128.195 125.237C127.684 124.726 127.428 124.093 127.428 123.337Z" fill="#DDDDE3"/>
</svg>
