<svg width="65" height="64" viewBox="0 0 65 64" fill="none" xmlns="http://www.w3.org/2000/svg">
<path d="M54.0477 24.0039C53.2921 24.0039 52.6588 23.7483 52.1477 23.2372C51.6366 22.7261 51.381 22.0928 51.381 21.3372C51.381 20.5817 51.6366 19.9483 52.1477 19.4372C52.6588 18.9261 53.2921 18.6706 54.0477 18.6706C54.8032 18.6706 55.4366 18.9261 55.9477 19.4372C56.4588 19.9483 56.7144 20.5817 56.7144 21.3372C56.7144 22.0928 56.4588 22.7261 55.9477 23.2372C55.4366 23.7483 54.8032 24.0039 54.0477 24.0039ZM54.0477 34.6706C53.2921 34.6706 52.6588 34.415 52.1477 33.9039C51.6366 33.3928 51.381 32.7595 51.381 32.0039C51.381 31.2483 51.6366 30.615 52.1477 30.1039C52.6588 29.5928 53.2921 29.3372 54.0477 29.3372C54.8032 29.3372 55.4366 29.5928 55.9477 30.1039C56.4588 30.615 56.7144 31.2483 56.7144 32.0039C56.7144 32.7595 56.4588 33.3928 55.9477 33.9039C55.4366 34.415 54.8032 34.6706 54.0477 34.6706ZM54.0477 45.3372C53.2921 45.3372 52.6588 45.0817 52.1477 44.5706C51.6366 44.0595 51.381 43.4261 51.381 42.6706C51.381 41.915 51.6366 41.2817 52.1477 40.7706C52.6588 40.2595 53.2921 40.0039 54.0477 40.0039C54.8032 40.0039 55.4366 40.2595 55.9477 40.7706C56.4588 41.2817 56.7144 41.915 56.7144 42.6706C56.7144 43.4261 56.4588 44.0595 55.9477 44.5706C55.4366 45.0817 54.8032 45.3372 54.0477 45.3372ZM22.0477 56.0039C21.2921 56.0039 20.6588 55.7483 20.1477 55.2372C19.6366 54.7261 19.381 54.0928 19.381 53.3372C19.381 52.5817 19.6366 51.9483 20.1477 51.4372C20.6588 50.9261 21.2921 50.6706 22.0477 50.6706C22.8032 50.6706 23.4366 50.9261 23.9477 51.4372C24.4588 51.9483 24.7144 52.5817 24.7144 53.3372C24.7144 54.0928 24.4588 54.7261 23.9477 55.2372C23.4366 55.7483 22.8032 56.0039 22.0477 56.0039ZM32.7144 56.0039C31.9588 56.0039 31.3255 55.7483 30.8144 55.2372C30.3032 54.7261 30.0477 54.0928 30.0477 53.3372C30.0477 52.5817 30.3032 51.9483 30.8144 51.4372C31.3255 50.9261 31.9588 50.6706 32.7144 50.6706C33.4699 50.6706 34.1032 50.9261 34.6144 51.4372C35.1255 51.9483 35.381 52.5817 35.381 53.3372C35.381 54.0928 35.1255 54.7261 34.6144 55.2372C34.1032 55.7483 33.4699 56.0039 32.7144 56.0039ZM43.381 56.0039C42.6255 56.0039 41.9921 55.7483 41.481 55.2372C40.9699 54.7261 40.7144 54.0928 40.7144 53.3372C40.7144 52.5817 40.9699 51.9483 41.481 51.4372C41.9921 50.9261 42.6255 50.6706 43.381 50.6706C44.1366 50.6706 44.7699 50.9261 45.281 51.4372C45.7921 51.9483 46.0477 52.5817 46.0477 53.3372C46.0477 54.0928 45.7921 54.7261 45.281 55.2372C44.7699 55.7483 44.1366 56.0039 43.381 56.0039ZM54.0477 56.0039C53.2921 56.0039 52.6588 55.7483 52.1477 55.2372C51.6366 54.7261 51.381 54.0928 51.381 53.3372C51.381 52.5817 51.6366 51.9483 52.1477 51.4372C52.6588 50.9261 53.2921 50.6706 54.0477 50.6706C54.8032 50.6706 55.4366 50.9261 55.9477 51.4372C56.4588 51.9483 56.7144 52.5817 56.7144 53.3372C56.7144 54.0928 56.4588 54.7261 55.9477 55.2372C55.4366 55.7483 54.8032 56.0039 54.0477 56.0039ZM8.71436 53.3372V13.3372C8.71436 11.8706 9.23658 10.615 10.281 9.57057C11.3255 8.52613 12.581 8.00391 14.0477 8.00391H54.0477C54.8032 8.00391 55.4366 8.25946 55.9477 8.77057C56.4588 9.28168 56.7144 9.91502 56.7144 10.6706C56.7144 11.4261 56.4588 12.0595 55.9477 12.5706C55.4366 13.0817 54.8032 13.3372 54.0477 13.3372H14.0477V53.3372C14.0477 54.0928 13.7921 54.7261 13.281 55.2372C12.7699 55.7483 12.1366 56.0039 11.381 56.0039C10.6255 56.0039 9.99213 55.7483 9.48102 55.2372C8.96991 54.7261 8.71436 54.0928 8.71436 53.3372Z" fill="#DDDDE3"/>
</svg>
