<svg width="64" height="65" viewBox="0 0 64 65" fill="none" xmlns="http://www.w3.org/2000/svg">
<path d="M53.3333 24.6113C52.5778 24.6113 51.9444 24.3558 51.4333 23.8447C50.9222 23.3335 50.6667 22.7002 50.6667 21.9447C50.6667 21.1891 50.9222 20.5558 51.4333 20.0447C51.9444 19.5335 52.5778 19.278 53.3333 19.278C54.0889 19.278 54.7222 19.5335 55.2333 20.0447C55.7444 20.5558 56 21.1891 56 21.9447C56 22.7002 55.7444 23.3335 55.2333 23.8447C54.7222 24.3558 54.0889 24.6113 53.3333 24.6113ZM53.3333 35.278C52.5778 35.278 51.9444 35.0224 51.4333 34.5113C50.9222 34.0002 50.6667 33.3669 50.6667 32.6113C50.6667 31.8558 50.9222 31.2224 51.4333 30.7113C51.9444 30.2002 52.5778 29.9447 53.3333 29.9447C54.0889 29.9447 54.7222 30.2002 55.2333 30.7113C55.7444 31.2224 56 31.8558 56 32.6113C56 33.3669 55.7444 34.0002 55.2333 34.5113C54.7222 35.0224 54.0889 35.278 53.3333 35.278ZM53.3333 45.9447C52.5778 45.9447 51.9444 45.6891 51.4333 45.178C50.9222 44.6669 50.6667 44.0335 50.6667 43.278C50.6667 42.5224 50.9222 41.8891 51.4333 41.378C51.9444 40.8669 52.5778 40.6113 53.3333 40.6113C54.0889 40.6113 54.7222 40.8669 55.2333 41.378C55.7444 41.8891 56 42.5224 56 43.278C56 44.0335 55.7444 44.6669 55.2333 45.178C54.7222 45.6891 54.0889 45.9447 53.3333 45.9447ZM21.3333 56.6113C20.5778 56.6113 19.9444 56.3558 19.4333 55.8447C18.9222 55.3335 18.6667 54.7002 18.6667 53.9447C18.6667 53.1891 18.9222 52.5558 19.4333 52.0447C19.9444 51.5335 20.5778 51.278 21.3333 51.278C22.0889 51.278 22.7222 51.5335 23.2333 52.0447C23.7444 52.5558 24 53.1891 24 53.9447C24 54.7002 23.7444 55.3335 23.2333 55.8447C22.7222 56.3558 22.0889 56.6113 21.3333 56.6113ZM32 56.6113C31.2444 56.6113 30.6111 56.3558 30.1 55.8447C29.5889 55.3335 29.3333 54.7002 29.3333 53.9447C29.3333 53.1891 29.5889 52.5558 30.1 52.0447C30.6111 51.5335 31.2444 51.278 32 51.278C32.7556 51.278 33.3889 51.5335 33.9 52.0447C34.4111 52.5558 34.6667 53.1891 34.6667 53.9447C34.6667 54.7002 34.4111 55.3335 33.9 55.8447C33.3889 56.3558 32.7556 56.6113 32 56.6113ZM42.6667 56.6113C41.9111 56.6113 41.2778 56.3558 40.7667 55.8447C40.2556 55.3335 40 54.7002 40 53.9447C40 53.1891 40.2556 52.5558 40.7667 52.0447C41.2778 51.5335 41.9111 51.278 42.6667 51.278C43.4222 51.278 44.0556 51.5335 44.5667 52.0447C45.0778 52.5558 45.3333 53.1891 45.3333 53.9447C45.3333 54.7002 45.0778 55.3335 44.5667 55.8447C44.0556 56.3558 43.4222 56.6113 42.6667 56.6113ZM53.3333 56.6113C52.5778 56.6113 51.9444 56.3558 51.4333 55.8447C50.9222 55.3335 50.6667 54.7002 50.6667 53.9447C50.6667 53.1891 50.9222 52.5558 51.4333 52.0447C51.9444 51.5335 52.5778 51.278 53.3333 51.278C54.0889 51.278 54.7222 51.5335 55.2333 52.0447C55.7444 52.5558 56 53.1891 56 53.9447C56 54.7002 55.7444 55.3335 55.2333 55.8447C54.7222 56.3558 54.0889 56.6113 53.3333 56.6113ZM8 53.9447V13.9447C8 12.478 8.52222 11.2224 9.56667 10.178C10.6111 9.13355 11.8667 8.61133 13.3333 8.61133H53.3333C54.0889 8.61133 54.7222 8.86688 55.2333 9.37799C55.7444 9.88911 56 10.5224 56 11.278C56 12.0336 55.7444 12.6669 55.2333 13.178C54.7222 13.6891 54.0889 13.9447 53.3333 13.9447H13.3333V53.9447C13.3333 54.7002 13.0778 55.3335 12.5667 55.8447C12.0556 56.3558 11.4222 56.6113 10.6667 56.6113C9.91111 56.6113 9.27778 56.3558 8.76667 55.8447C8.25556 55.3335 8 54.7002 8 53.9447Z" fill="#DDDDE3"/>
</svg>
